<?xml version="1.0" encoding="UTF-8"?>
<svg id="Layer_2" xmlns="http://www.w3.org/2000/svg" viewBox="0 0 1025 517.92">
    <style>
    .st1{
        fill: none;
        stroke: #333;
        stroke-width: 1px;
    }
    </style>

    <polygon points="362.87 212.72 368.34 222.9 367.95 221.81 362.87 212.72" class="st1"/>
    <polygon points="364.14 211.1 363.84 210.99 366.33 217.25 364.14 211.1" class="st1"/>
    <polygon points="718.98 119.57 719.31 119.42 720.38 118.01 718.98 119.57" class="st1"/>
    <polygon points="305.68 119.42 306.02 119.57 304.62 118.01 305.68 119.42" class="st1"/>
    <polygon points="480.39 465.44 464.36 458.2 480.42 493.22 496.45 501.2 480.39 465.44" class="st1"/>
    <polygon points="416.97 230.36 405.21 226.07 400.17 225.57 416.21 288.09 432.22 291.3 416.97 230.36" class="st1"/>
    <polygon points="608.73 332.12 592.68 386.9 608.66 352.98 624.69 303.47 608.73 332.12" class="st1"/>
    <polygon points="544.63 315.82 528.56 370.69 544.62 400.98 560.69 342.59 544.63 315.82" class="st1"/>
    <polygon points="416.27 332.12 432.31 386.9 448.31 409.06 432.26 350.71 416.27 332.12" class="st1"/>
    <polygon points="384.27 250.69 400.31 303.47 416.27 332.12 400.23 273.48 384.27 250.69" class="st1"/>
    <polygon points="544.61 465.44 560.64 458.2 576.69 409.06 560.66 415.18 544.61 465.44" class="st1"/>
    <polygon points="512.5 485.22 528.55 501.2 544.61 465.44 528.56 450.17 512.5 485.22" class="st1"/>
    <polygon points="480.38 400.98 464.33 415.18 480.39 465.44 496.44 450.17 480.38 400.98" class="st1"/>
    <polygon points="480.37 315.82 496.44 370.69 512.5 328.59 496.43 278.95 480.37 315.82" class="st1"/>
    <polygon points="448.25 279.9 464.31 342.59 480.37 315.82 464.3 257.08 448.25 279.9" class="st1"/>
    <polygon points="640.72 250.69 656.66 222.9 660.86 211.1 655.08 213.21 651.84 214.39 640.72 250.69" class="st1"/>
    <polygon points="608.79 288.09 592.74 350.71 608.73 332.12 624.77 273.48 608.79 288.09" class="st1"/>
    <polygon points="591.58 236.36 587.54 237.84 576.75 279.9 592.77 291.3 608.03 230.36 607.44 230.58 591.58 236.36" class="st1"/>
    <polygon points="556.59 249.13 544.09 253.69 535.26 256.91 528.57 278.95 544.63 315.82 560.7 257.08 556.59 249.13" class="st1"/>
    <polygon points="362.87 212.72 361.39 210.1 359.21 209.3 368.46 231.11 384.37 268.54 368.34 222.9 362.87 212.72" class="st1"/>
    <polygon points="480.42 493.22 496.47 509.19 512.5 517.45 496.45 501.2 480.42 493.22" class="st1"/>
    <polygon points="448.36 433.15 464.4 466.22 480.42 493.22 464.36 458.2 448.36 433.15" class="st1"/>
    <polygon points="416.21 288.09 432.26 350.71 448.28 355.47 432.22 291.3 416.21 288.09" class="st1"/>
    <polygon points="416.21 288.09 400.23 273.48 416.27 332.12 432.26 350.71 416.21 288.09" class="st1"/>
    <polygon points="395.62 222.58 385.81 219 385.21 218.78 400.23 273.48 416.21 288.09 400.17 225.57 395.62 222.58" class="st1"/>
    <polygon points="608.66 352.98 624.59 311.61 640.63 268.54 624.69 303.47 608.66 352.98" class="st1"/>
    <polygon points="584.74 409.81 592.61 394.97 608.66 352.98 592.68 386.9 584.74 409.81" class="st1"/>
    <polygon points="544.62 400.98 560.66 415.18 576.72 355.47 560.69 342.59 544.62 400.98" class="st1"/>
    <polygon points="544.62 400.98 528.56 450.17 544.61 465.44 560.66 415.18 544.62 400.98" class="st1"/>
    <polygon points="512.5 417.04 528.56 450.17 544.62 400.98 528.56 370.69 512.5 417.04" class="st1"/>
    <polygon points="489.74 256.91 496.43 278.95 502.85 261.69 496.71 259.45 489.74 256.91" class="st1"/>
    <polygon points="489.74 256.91 480.9 253.69 468.41 249.13 464.3 257.08 480.37 315.82 496.43 278.95 489.74 256.91" class="st1"/>
    <polygon points="461.41 246.57 464.3 257.08 468.41 249.13 465.09 247.91 461.41 246.57" class="st1"/>
    <polygon points="384.37 268.54 400.41 311.61 416.34 352.98 400.31 303.47 384.37 268.54" class="st1"/>
    <polygon points="416.27 332.12 400.31 303.47 416.34 352.98 432.31 386.9 416.27 332.12" class="st1"/>
    <polygon points="416.34 352.98 432.38 394.97 448.36 433.15 432.31 386.9 416.34 352.98" class="st1"/>
    <polygon points="448.28 355.47 432.26 350.71 448.31 409.06 464.33 415.18 448.28 355.47" class="st1"/>
    <polygon points="448.31 409.06 464.36 458.2 480.39 465.44 464.33 415.18 448.31 409.06" class="st1"/>
    <polygon points="448.31 409.06 432.31 386.9 448.36 433.15 464.36 458.2 448.31 409.06" class="st1"/>
    <polygon points="384.27 250.69 368.34 222.9 384.37 268.54 400.31 303.47 384.27 250.69" class="st1"/>
    <polygon points="369.92 213.21 364.14 211.1 366.33 217.25 368.6 222.98 367.95 221.81 368.34 222.9 384.27 250.69 373.16 214.39 369.92 213.21" class="st1"/>
    <polygon points="385.21 218.78 373.16 214.39 384.27 250.69 400.23 273.48 385.21 218.78" class="st1"/>
    <polygon points="576.64 433.15 592.61 394.97 584.74 409.81 576.64 433.15" class="st1"/>
    <polygon points="512.5 517.45 528.53 509.19 544.58 493.22 528.55 501.2 512.5 517.45" class="st1"/>
    <polygon points="544.61 465.44 528.55 501.2 544.58 493.22 560.64 458.2 544.61 465.44" class="st1"/>
    <polygon points="560.64 458.2 544.58 493.22 560.59 466.22 576.64 433.15 560.64 458.2" class="st1"/>
    <polygon points="576.72 355.47 560.66 415.18 576.69 409.06 592.74 350.71 576.72 355.47" class="st1"/>
    <polygon points="576.69 409.06 592.68 386.9 608.73 332.12 592.74 350.71 576.69 409.06" class="st1"/>
    <polygon points="592.68 386.9 576.69 409.06 560.64 458.2 576.64 433.15 584.74 409.81 592.68 386.9" class="st1"/>
    <polygon points="512.5 485.22 496.45 501.2 512.5 517.45 528.55 501.2 512.5 485.22" class="st1"/>
    <polygon points="480.39 465.44 496.45 501.2 512.5 485.22 496.44 450.17 480.39 465.44" class="st1"/>
    <polygon points="512.5 417.04 496.44 450.17 512.5 485.22 528.56 450.17 512.5 417.04" class="st1"/>
    <polygon points="448.28 355.47 464.33 415.18 480.38 400.98 464.31 342.59 448.28 355.47" class="st1"/>
    <polygon points="480.37 315.82 464.31 342.59 480.38 400.98 496.44 370.69 480.37 315.82" class="st1"/>
    <polygon points="480.38 400.98 496.44 450.17 512.5 417.04 496.44 370.69 480.38 400.98" class="st1"/>
    <polygon points="522.15 261.69 512.5 265.21 502.85 261.69 496.43 278.95 512.5 328.59 528.57 278.95 522.15 261.69" class="st1"/>
    <polygon points="512.5 328.59 528.56 370.69 544.63 315.82 528.57 278.95 512.5 328.59" class="st1"/>
    <polygon points="512.5 328.59 496.44 370.69 512.5 417.04 528.56 370.69 512.5 328.59" class="st1"/>
    <polygon points="448.25 279.9 432.22 291.3 448.28 355.47 464.31 342.59 448.25 279.9" class="st1"/>
    <polygon points="433.41 236.36 417.56 230.58 416.97 230.36 432.22 291.3 448.25 279.9 437.46 237.84 433.41 236.36" class="st1"/>
    <polygon points="461.41 246.57 449.26 242.14 437.46 237.84 448.25 279.9 464.3 257.08 461.41 246.57" class="st1"/>
    <polygon points="656.66 222.9 640.63 268.54 656.54 231.11 665.79 209.3 663.53 210.12 656.66 222.9" class="st1"/>
    <polygon points="640.72 250.69 624.69 303.47 640.63 268.54 656.66 222.9 640.72 250.69" class="st1"/>
    <polygon points="608.73 332.12 624.69 303.47 640.72 250.69 624.77 273.48 608.73 332.12" class="st1"/>
    <polygon points="639.79 218.78 624.77 273.48 640.72 250.69 651.84 214.39 639.79 218.78" class="st1"/>
    <polygon points="576.72 355.47 592.74 350.71 608.79 288.09 592.77 291.3 576.72 355.47" class="st1"/>
    <polygon points="619.79 226.07 608.03 230.36 592.77 291.3 608.79 288.09 624.83 225.57 619.79 226.07" class="st1"/>
    <polygon points="624.83 225.57 608.79 288.09 624.77 273.48 639.79 218.78 639.19 219 629.38 222.58 624.83 225.57" class="st1"/>
    <polygon points="576.75 279.9 560.69 342.59 576.72 355.47 592.77 291.3 576.75 279.9" class="st1"/>
    <polygon points="544.63 315.82 560.69 342.59 576.75 279.9 560.7 257.08 544.63 315.82" class="st1"/>
    <polygon points="575.74 242.14 563.59 246.57 560.7 257.08 576.75 279.9 587.54 237.84 575.74 242.14" class="st1"/>
    <polygon points="522.15 261.69 528.57 278.95 535.26 256.91 528.29 259.45 522.15 261.69" class="st1"/>
    <polygon points="556.59 249.13 560.7 257.08 563.59 246.57 559.91 247.91 556.59 249.13" class="st1"/>
    <polygon points="540.72 8.11 544.76 8.33 548.41 8.39 561.1 7.58 544.92 5.09 528.7 6.66 540.72 8.11" class="st1"/>
    <polygon points="512.5 4.65 496.28 2.61 480.08 5.09 496.3 6.66 512.5 4.65" class="st1"/>
    <polygon points="560.87 8.59 576.22 9.89 561.1 7.58 548.41 8.39 560.87 8.59" class="st1"/>
    <polygon points="528.62 7.46 540.72 8.11 528.7 6.66 514.03 8.03 528.62 7.46" class="st1"/>
    <polygon points="476.59 8.39 463.9 7.58 448.78 9.89 464.13 8.59 476.59 8.39" class="st1"/>
    <polygon points="480.24 8.33 484.28 8.11 496.3 6.66 480.08 5.09 463.9 7.58 476.59 8.39 480.24 8.33" class="st1"/>
    <polygon points="510.96 8.03 496.3 6.66 484.28 8.11 496.37 7.46 510.96 8.03" class="st1"/>
    <polygon points="528.71 2.61 512.5 .13 496.28 2.61 512.5 4.65 528.71 2.61" class="st1"/>
    <polygon points="528.7 6.66 544.92 5.09 528.71 2.61 512.5 4.65 528.7 6.66" class="st1"/>
    <polygon points="512.5 8.09 514.03 8.03 528.7 6.66 512.5 4.65 496.3 6.66 510.96 8.03 512.5 8.09" class="st1"/>
    <polygon points="663.53 210.12 660.86 211.1 656.66 222.9 663.53 210.12" class="st1"/>
    <polygon points="624.83 225.57 625.24 224.09 623.3 224.79 619.79 226.07 624.83 225.57" class="st1"/>
    <polygon points="629.38 222.58 625.24 224.09 624.83 225.57 629.38 222.58" class="st1"/>
    <polygon points="368.6 222.98 366.33 217.25 363.84 210.99 361.39 210.1 362.87 212.72 367.95 221.81 368.6 222.98" class="st1"/>
    <polygon points="399.76 224.09 400.17 225.57 405.21 226.07 401.69 224.79 399.76 224.09" class="st1"/>
    <polygon points="395.62 222.58 400.17 225.57 399.76 224.09 395.62 222.58" class="st1"/>
    <polygon points="288.75 105.34 302.81 118.05 303.25 118.33 305.18 119.2 305.68 119.42 304.62 118.01 288.75 105.34" class="st1"/>
    <polygon points="736.25 105.34 720.38 118.01 719.31 119.42 719.82 119.2 721.75 118.33 722.19 118.05 736.25 105.34" class="st1"/>
    <polygon points="482.15 149.79 480.35 144.72 477.62 149.6 480.73 149.7 482.15 149.79" class="st1"/>
    <polygon points="672.92 115.37 665.85 135.43 671.62 134.23 679.83 132.31 688.87 109.48 672.92 115.37" class="st1"/>
    <polygon points="594.96 146.38 607.9 145.03 613.65 144.63 624.94 110.06 608.91 98.7 592.84 144.42 594.96 146.38" class="st1"/>
    <polygon points="352.08 115.37 359.14 135.43 369.35 137.57 374.68 138.67 368.05 118.39 352.08 115.37" class="st1"/>
    <polygon points="723.73 117.44 735.85 112.02 751.9 105.45 736.05 109.07 723.73 117.44" class="st1"/>
    <polygon points="721.75 118.33 721.99 118.22 722.19 118.05 721.75 118.33" class="st1"/>
    <polygon points="699.51 127.14 702.98 126.16 704.66 122.63 699.51 127.14" class="st1"/>
    <polygon points="547.38 149.6 560.18 149.22 568.77 149.25 576.79 125.1 560.73 103.28 544.65 144.72 547.38 149.6" class="st1"/>
    <polygon points="528.39 150.69 542.85 149.79 544.65 144.72 528.58 114.77 513.52 149.61 528.39 150.69" class="st1"/>
    <polygon points="736.44 99.3 720.55 109.72 712.75 122.33 718.98 119.57 720.38 118.01 736.44 99.3" class="st1"/>
    <polygon points="688.87 109.48 679.83 132.31 687.61 130.49 692.18 129.2 704.8 102.19 688.87 109.48" class="st1"/>
    <polygon points="632.98 142.16 640.95 117.11 624.94 110.06 613.65 144.63 623.85 143.93 632.98 142.16" class="st1"/>
    <polygon points="592.84 144.42 592.17 146.67 594.96 146.38 592.84 144.42" class="st1"/>
    <polygon points="304.62 118.01 306.02 119.57 312.25 122.33 304.45 109.72 288.56 99.3 304.62 118.01" class="st1"/>
    <polygon points="304.27 94.94 320.34 122.63 325.48 127.14 332.81 129.2 320.19 102.19 304.27 94.94" class="st1"/>
    <polygon points="322.02 126.16 325.48 127.14 320.34 122.63 322.02 126.16" class="st1"/>
    <polygon points="304.45 109.72 312.25 122.33 318.44 125.08 321.38 125.98 322.02 126.16 320.34 122.63 304.45 109.72" class="st1"/>
    <polygon points="320.19 102.19 332.81 129.2 337.38 130.49 345.17 132.31 336.13 109.48 320.19 102.19" class="st1"/>
    <polygon points="336.13 109.48 345.17 132.31 353.38 134.23 359.14 135.43 352.08 115.37 336.13 109.48" class="st1"/>
    <polygon points="384.04 117.11 368.05 118.39 374.68 138.67 385.31 140.86 392.01 142.16 384.04 117.11" class="st1"/>
    <polygon points="401.15 143.93 411.35 144.63 400.06 110.06 384.04 117.11 392.01 142.16 401.15 143.93" class="st1"/>
    <polygon points="411.35 144.63 417.1 145.03 430.04 146.38 432.16 144.42 416.09 98.7 400.06 110.06 411.35 144.63" class="st1"/>
    <polygon points="432.16 144.42 430.04 146.38 432.83 146.67 432.16 144.42" class="st1"/>
    <polygon points="464.82 149.22 477.62 149.6 480.35 144.72 464.26 103.28 448.21 125.1 456.23 149.25 464.82 149.22" class="st1"/>
    <polygon points="432.83 146.67 433.04 146.7 448.95 149.28 456.23 149.25 448.21 125.1 432.16 144.42 432.83 146.67" class="st1"/>
    <polygon points="752.11 99.68 736.25 105.34 722.19 118.05 721.99 118.22 723.73 117.44 736.05 109.07 752.11 99.68" class="st1"/>
    <polygon points="720.73 94.94 704.8 102.19 692.18 129.2 699.51 127.14 704.66 122.63 720.73 94.94" class="st1"/>
    <polygon points="720.55 109.72 704.66 122.63 702.98 126.16 703.61 125.98 706.56 125.08 712.75 122.33 720.55 109.72" class="st1"/>
    <polygon points="640.95 117.11 632.98 142.16 639.69 140.86 650.32 138.67 656.95 118.39 640.95 117.11" class="st1"/>
    <polygon points="656.95 118.39 650.32 138.67 655.65 137.57 665.85 135.43 672.92 115.37 656.95 118.39" class="st1"/>
    <polygon points="544.27 149.7 547.38 149.6 544.65 144.72 542.85 149.79 544.27 149.7" class="st1"/>
    <polygon points="576.04 149.28 591.96 146.7 592.17 146.67 592.84 144.42 576.79 125.1 568.77 149.25 576.04 149.28" class="st1"/>
    <polygon points="496.6 150.69 511.48 149.61 496.42 114.77 480.35 144.72 482.15 149.79 496.6 150.69" class="st1"/>
    <polygon points="719.82 119.2 719.31 119.42 718.98 119.57 712.75 122.33 706.56 125.08 719.63 121.08 735.65 116.13 719.82 119.2" class="st1"/>
    <polygon points="288.95 109.07 302.81 118.05 288.75 105.34 272.89 99.68 288.95 109.07" class="st1"/>
    <polygon points="288.75 105.34 304.62 118.01 288.56 99.3 272.68 92.86 288.75 105.34" class="st1"/>
    <polygon points="448.21 125.1 432.13 84.46 416.09 98.7 432.16 144.42 448.21 125.1" class="st1"/>
    <polygon points="496.42 114.77 480.33 80.96 464.26 103.28 480.35 144.72 496.42 114.77" class="st1"/>
    <polygon points="288.95 109.07 273.1 105.45 289.15 112.02 303.25 118.33 302.81 118.05 288.95 109.07" class="st1"/>
    <polygon points="544.65 144.72 560.73 103.28 544.67 80.96 528.58 114.77 544.65 144.72" class="st1"/>
    <polygon points="528.58 114.77 544.67 80.96 528.59 59.63 512.5 85.73 528.58 114.77" class="st1"/>
    <polygon points="306.02 119.57 305.68 119.42 305.18 119.2 289.34 116.13 305.37 121.08 318.44 125.08 312.25 122.33 306.02 119.57" class="st1"/>
    <polygon points="448.21 125.1 464.26 103.28 448.17 68.79 432.13 84.46 448.21 125.1" class="st1"/>
    <polygon points="576.79 125.1 592.87 84.46 576.82 68.79 560.73 103.28 576.79 125.1" class="st1"/>
    <polygon points="608.91 98.7 592.87 84.46 576.79 125.1 592.84 144.42 608.91 98.7" class="st1"/>
    <polygon points="512.5 149.54 513.52 149.61 528.58 114.77 512.5 85.73 496.42 114.77 511.48 149.61 512.5 149.54" class="st1"/>
    <polygon points="512.5 85.73 496.41 59.63 480.33 80.96 496.42 114.77 512.5 85.73" class="st1"/>
    <polygon points="544.14 226.51 528.32 233.49 544.12 240.74 559.95 234.37 544.14 226.51" class="st1"/>
    <polygon points="480.83 210.62 496.66 201.7 480.81 193.06 464.97 202.58 480.83 210.62" class="st1"/>
    <polygon points="433.17 168.66 417.26 161.57 401.44 171.3 417.34 178.77 433.17 168.66" class="st1"/>
    <polygon points="369.47 143.98 353.51 139.27 337.68 146.09 353.64 151.57 369.47 143.98" class="st1"/>
    <polygon points="289.54 122.8 273.71 129.63 289.73 132.93 305.55 126.69 289.54 122.8" class="st1"/>
    <polygon points="225.33 112.16 209.5 121.96 225.58 123.09 241.41 113.88 225.33 112.16" class="st1"/>
    <polygon points="160.88 110.83 145.04 120.46 161.18 120.58 177.02 110.49 160.88 110.83" class="st1"/>
    <polygon points="112.38 111.73 96.19 111.57 80.35 118.68 96.54 119.45 112.38 111.73" class="st1"/>
    <polygon points="544.24 158.39 528.37 165.55 544.22 174.65 560.1 166.66 544.24 158.39" class="st1"/>
    <polygon points="224.61 83.57 240.49 77.99 224.36 75.74 208.48 82.98 224.61 83.57" class="st1"/>
    <polygon points="175.87 79.25 159.67 81.67 143.78 89.23 159.98 87.36 175.87 79.25" class="st1"/>
    <polygon points="671.23 168.8 655.3 175.5 671.11 188.2 687.04 181.84 671.23 168.8" class="st1"/>
    <polygon points="607.9 145.03 594.96 146.38 592.17 146.67 591.96 146.7 607.81 148.75 623.74 144.47 607.9 145.03" class="st1"/>
    <polygon points="304.11 77.9 288 62.1 272.08 63.84 288.19 75.81 304.11 77.9" class="st1"/>
    <polygon points="719.11 151.54 734.92 164.67 750.91 160.14 735.1 147.04 719.11 151.54" class="st1"/>
    <polygon points="351.97 82.49 367.96 80.12 351.86 54.72 335.87 57.92 351.97 82.49" class="st1"/>
    <polygon points="783.14 137.86 798.96 151.08 815.01 149.03 799.19 135.94 783.14 137.86" class="st1"/>
    <polygon points="723.73 117.44 721.99 118.22 721.75 118.33 719.82 119.2 735.65 116.13 751.7 111.48 735.85 112.02 723.73 117.44" class="st1"/>
    <polygon points="847.42 132.3 863.24 143.97 879.35 142.46 863.53 131.49 847.42 132.3" class="st1"/>
    <polygon points="784.05 95.3 799.9 102.04 816.01 100.73 800.15 92.38 784.05 95.3" class="st1"/>
    <polygon points="752.52 84.54 736.63 88.72 720.55 109.72 736.44 99.3 752.52 84.54" class="st1"/>
    <polygon points="911.93 129.14 927.75 137.81 943.91 136.13 928.1 128.16 911.93 129.14" class="st1"/>
    <polygon points="864.42 101.97 880.58 102.98 864.71 94.21 848.55 92.72 864.42 101.97" class="st1"/>
    <polygon points="800.88 68.76 817.05 69.45 801.14 62.24 784.98 62.72 800.88 68.76" class="st1"/>
    <polygon points="992.49 130.54 1008.71 128.59 992.9 122.69 976.68 124.19 992.49 130.54" class="st1"/>
    <polygon points="929.17 104.64 945.39 104.97 929.53 99.05 913.31 97.93 929.17 104.64" class="st1"/>
    <polygon points="865.64 77.56 881.88 81.27 865.96 75.34 849.73 70.8 865.64 77.56" class="st1"/>
    <polygon points="528.3 247.02 512.5 253.25 528.29 259.45 535.26 256.91 544.09 253.69 528.3 247.02" class="st1"/>
    <polygon points="496.69 247.02 480.88 240.74 465.09 247.91 468.41 249.13 480.9 253.69 496.69 247.02" class="st1"/>
    <polygon points="512.5 226.09 496.67 218.49 480.86 226.51 496.68 233.49 512.5 226.09" class="st1"/>
    <polygon points="480.86 226.51 465.01 219.32 449.21 227.88 465.05 234.37 480.86 226.51" class="st1"/>
    <polygon points="433.35 221.3 417.48 214.67 401.69 224.79 405.21 226.07 416.97 230.36 417.56 230.58 433.35 221.3" class="st1"/>
    <polygon points="433.29 204.57 449.11 194.51 433.23 186.53 417.41 197.14 433.29 204.57" class="st1"/>
    <polygon points="401.6 208.01 417.41 197.14 401.52 189.76 385.71 201.34 401.6 208.01" class="st1"/>
    <polygon points="369.81 194.72 353.88 188.2 338.09 201.59 354.01 207.4 369.81 194.72" class="st1"/>
    <polygon points="385.51 164.22 369.58 157.61 353.77 168.8 369.7 175.5 385.51 164.22" class="st1"/>
    <polygon points="353.77 168.8 337.82 162.51 322.01 175.69 337.95 181.84 353.77 168.8" class="st1"/>
    <polygon points="290.07 164.67 274.27 179.19 290.25 184.36 306.05 169.92 290.07 164.67" class="st1"/>
    <polygon points="305.73 136.78 289.9 147.04 305.89 151.54 321.71 141.15 305.73 136.78" class="st1"/>
    <polygon points="273.9 143.32 258.09 156.47 274.09 160.14 289.9 147.04 273.9 143.32" class="st1"/>
    <polygon points="226.04 151.08 210.22 165.4 226.26 167.99 242.07 153.51 226.04 151.08" class="st1"/>
    <polygon points="241.63 124.7 225.81 135.94 241.85 137.86 257.68 126.88 241.63 124.7" class="st1"/>
    <polygon points="209.74 134.44 193.93 147.2 209.99 149.03 225.81 135.94 209.74 134.44" class="st1"/>
    <polygon points="161.76 143.97 145.95 155.93 162.04 158.3 177.85 145.53 161.76 143.97" class="st1"/>
    <polygon points="177.3 120.79 161.47 131.49 177.58 132.3 193.4 121.22 177.3 120.79" class="st1"/>
    <polygon points="145.35 130.74 129.53 140.95 145.65 142.46 161.47 131.49 145.35 130.74" class="st1"/>
    <polygon points="97.25 137.81 81.45 146.41 97.6 148.79 113.4 139.41 97.25 137.81" class="st1"/>
    <polygon points="112.72 120.02 96.9 128.16 113.07 129.14 128.89 120.32 112.72 120.02" class="st1"/>
    <polygon points="80.72 126.97 64.91 134.35 81.09 136.13 96.9 128.16 80.72 126.97" class="st1"/>
    <polygon points="32.51 130.54 16.71 136.87 32.92 139.26 48.72 132.47 32.51 130.54" class="st1"/>
    <polygon points="64.14 117.77 47.92 116.79 32.1 122.69 48.32 124.19 64.14 117.77" class="st1"/>
    <polygon points="591.58 236.36 607.44 230.58 591.65 221.3 575.79 227.88 591.58 236.36" class="st1"/>
    <polygon points="528.33 218.49 544.14 226.51 559.99 219.32 544.17 210.62 528.33 218.49" class="st1"/>
    <polygon points="560.06 184.54 544.19 193.06 560.02 202.58 575.89 194.51 560.06 184.54" class="st1"/>
    <polygon points="528.35 183.38 512.5 192.51 528.34 201.7 544.19 193.06 528.35 183.38" class="st1"/>
    <polygon points="496.65 183.38 480.78 174.65 464.94 184.54 480.81 193.06 496.65 183.38" class="st1"/>
    <polygon points="512.5 157.91 496.62 152.39 480.76 158.39 496.63 165.55 512.5 157.91" class="st1"/>
    <polygon points="480.76 158.39 464.86 153.07 449.01 159.74 464.9 166.66 480.76 158.39" class="st1"/>
    <polygon points="417.19 148.75 401.35 155.07 417.26 161.57 433.11 153.81 417.19 148.75" class="st1"/>
    <polygon points="417.1 145.03 411.35 144.63 401.15 143.93 392.01 142.16 385.31 140.86 401.26 144.47 417.1 145.03" class="st1"/>
    <polygon points="369.35 137.57 359.14 135.43 353.38 134.23 337.54 134.92 353.51 139.27 369.35 137.57" class="st1"/>
    <polygon points="289.34 116.13 273.51 119.26 289.54 122.8 305.37 121.08 289.34 116.13" class="st1"/>
    <polygon points="273.1 105.45 257.25 107.52 273.3 111.48 289.15 112.02 273.1 105.45" class="st1"/>
    <polygon points="225.1 102.04 209.24 111.04 225.33 112.16 241.18 104.34 225.1 102.04" class="st1"/>
    <polygon points="240.72 86.31 224.85 92.38 240.95 95.3 256.82 91.89 240.72 86.31" class="st1"/>
    <polygon points="208.73 91.3 192.87 100.51 208.99 100.73 224.85 92.38 208.73 91.3" class="st1"/>
    <polygon points="160.58 101.97 144.73 111.29 160.88 110.83 176.74 101.04 160.58 101.97" class="st1"/>
    <polygon points="192.32 83.88 176.16 85.56 160.28 94.21 176.45 92.72 192.32 83.88" class="st1"/>
    <polygon points="160.28 94.21 144.1 95.55 128.24 103.72 144.42 102.98 160.28 94.21" class="st1"/>
    <polygon points="112.04 104.25 95.83 104.64 79.98 111.27 96.19 111.57 112.04 104.25" class="st1"/>
    <polygon points="127.57 91.17 111.34 93.13 95.46 99.05 111.69 97.93 127.57 91.17" class="st1"/>
    <polygon points="655.19 194.72 639.29 201.34 655.08 213.21 660.86 211.1 663.53 210.12 665.79 209.3 670.99 207.4 655.19 194.72" class="st1"/>
    <polygon points="607.66 178.77 591.77 186.53 607.59 197.14 623.48 189.76 607.66 178.77" class="st1"/>
    <polygon points="623.65 155.07 607.74 161.57 623.56 171.3 639.48 164.22 623.65 155.07" class="st1"/>
    <polygon points="575.99 159.74 591.83 168.66 607.74 161.57 591.89 153.81 575.99 159.74" class="st1"/>
    <polygon points="544.27 149.7 528.38 152.39 544.24 158.39 560.14 153.07 544.27 149.7" class="st1"/>
    <polygon points="304.45 109.72 320.34 122.63 304.27 94.94 288.37 88.72 304.45 109.72" class="st1"/>
    <polygon points="272.48 84.54 288.37 88.72 272.27 74.72 256.38 75.24 272.48 84.54" class="st1"/>
    <polygon points="224.36 75.74 240.25 70.33 224.11 68.76 208.21 75.77 224.36 75.74" class="st1"/>
    <polygon points="255.94 57.58 239.79 55.63 223.86 62.24 240.02 62.72 255.94 57.58" class="st1"/>
    <polygon points="223.86 62.24 207.68 63.75 191.77 71.35 207.95 69.45 223.86 62.24" class="st1"/>
    <polygon points="175.57 74.15 159.36 77.56 143.46 84.36 159.67 81.67 175.57 74.15" class="st1"/>
    <polygon points="191.2 64.15 174.96 69.39 159.04 75.34 175.27 70.8 191.2 64.15" class="st1"/>
    <polygon points="702.99 175.69 718.79 189.97 734.75 184.36 718.95 169.92 702.99 175.69" class="st1"/>
    <polygon points="671.36 151.57 655.41 157.61 671.23 168.8 687.18 162.51 671.36 151.57" class="st1"/>
    <polygon points="687.46 134.92 671.49 139.27 687.32 146.09 703.29 141.15 687.46 134.92" class="st1"/>
    <polygon points="655.65 137.57 650.32 138.67 639.69 140.86 655.53 143.98 671.49 139.27 655.65 137.57" class="st1"/>
    <polygon points="352.08 115.37 336.01 82.25 320.05 80.38 336.13 109.48 352.08 115.37" class="st1"/>
    <polygon points="766.91 156.47 782.72 171 798.74 167.99 782.93 153.51 766.91 156.47" class="st1"/>
    <polygon points="719.27 136.78 735.1 147.04 751.1 143.32 735.27 132.93 719.27 136.78" class="st1"/>
    <polygon points="735.46 122.8 751.29 129.63 767.32 126.88 751.49 119.26 735.46 122.8" class="st1"/>
    <polygon points="706.56 125.08 703.61 125.98 719.45 126.69 735.46 122.8 719.63 121.08 706.56 125.08" class="st1"/>
    <polygon points="416.09 98.7 399.99 65.52 383.97 74.13 400.06 110.06 416.09 98.7" class="st1"/>
    <polygon points="831.07 147.2 846.88 160.67 862.96 158.3 847.15 145.53 831.07 147.2" class="st1"/>
    <polygon points="783.37 124.7 799.19 135.94 815.25 134.44 799.42 123.09 783.37 124.7" class="st1"/>
    <polygon points="799.67 112.16 815.5 121.96 831.6 121.22 815.76 111.04 799.67 112.16" class="st1"/>
    <polygon points="767.75 107.52 783.59 113.88 799.67 112.16 783.82 104.34 767.75 107.52" class="st1"/>
    <polygon points="736.25 105.34 752.11 99.68 768.18 91.89 752.32 92.86 736.25 105.34" class="st1"/>
    <polygon points="895.47 140.95 911.27 151.17 927.4 148.79 911.6 139.41 895.47 140.95" class="st1"/>
    <polygon points="847.7 120.79 863.53 131.49 879.65 130.74 863.82 120.58 847.7 120.79" class="st1"/>
    <polygon points="864.12 110.83 879.96 120.46 896.11 120.32 880.27 111.29 864.12 110.83" class="st1"/>
    <polygon points="832.12 100.51 847.98 110.49 864.12 110.83 848.26 101.04 832.12 100.51" class="st1"/>
    <polygon points="784.28 86.31 800.15 92.38 816.26 91.3 800.39 83.57 784.28 86.31" class="st1"/>
    <polygon points="832.67 83.88 816.79 75.77 800.64 75.74 816.52 82.98 832.67 83.88" class="st1"/>
    <polygon points="784.51 77.99 800.64 75.74 784.75 70.33 768.62 75.24 784.51 77.99" class="st1"/>
    <polygon points="736.63 88.72 752.73 74.72 736.81 75.81 720.73 94.94 736.63 88.72" class="st1"/>
    <polygon points="720.89 77.9 737 62.1 721.05 60.98 704.95 80.38 720.89 77.9" class="st1"/>
    <polygon points="672.92 115.37 688.99 82.25 673.03 82.49 656.95 118.39 672.92 115.37" class="st1"/>
    <polygon points="608.91 98.7 625.01 65.52 608.98 55.27 592.87 84.46 608.91 98.7" class="st1"/>
    <polygon points="960.09 134.35 975.89 141.65 992.08 139.26 976.28 132.47 960.09 134.35" class="st1"/>
    <polygon points="912.27 120.02 928.1 128.16 944.28 126.97 928.45 119.45 912.27 120.02" class="st1"/>
    <polygon points="944.65 118.68 960.86 117.77 945.02 111.27 928.81 111.57 944.65 118.68" class="st1"/>
    <polygon points="912.62 111.73 928.81 111.57 912.96 104.25 896.76 103.72 912.62 111.73" class="st1"/>
    <polygon points="864.71 94.21 880.9 95.55 865.02 87.36 848.84 85.56 864.71 94.21" class="st1"/>
    <polygon points="881.22 89.23 897.43 91.17 881.54 84.36 865.33 81.67 881.22 89.23" class="st1"/>
    <polygon points="849.13 79.25 865.33 81.67 849.43 74.15 833.23 71.35 849.13 79.25" class="st1"/>
    <polygon points="801.14 62.24 817.32 63.75 801.39 56.55 785.21 55.63 801.14 62.24" class="st1"/>
    <polygon points="559.95 234.37 544.12 240.74 559.91 247.91 563.59 246.57 575.74 242.14 559.95 234.37" class="st1"/>
    <polygon points="544.12 240.74 528.3 247.02 544.09 253.69 556.59 249.13 559.91 247.91 544.12 240.74" class="st1"/>
    <polygon points="528.32 233.49 512.5 240.31 528.3 247.02 544.12 240.74 528.32 233.49" class="st1"/>
    <polygon points="496.67 218.49 512.5 210.25 496.66 201.7 480.83 210.62 496.67 218.49" class="st1"/>
    <polygon points="480.86 226.51 496.67 218.49 480.83 210.62 465.01 219.32 480.86 226.51" class="st1"/>
    <polygon points="465.01 219.32 480.83 210.62 464.97 202.58 449.16 211.98 465.01 219.32" class="st1"/>
    <polygon points="449.06 176.34 433.17 168.66 417.34 178.77 433.23 186.53 449.06 176.34" class="st1"/>
    <polygon points="433.23 186.53 417.34 178.77 401.52 189.76 417.41 197.14 433.23 186.53" class="st1"/>
    <polygon points="417.34 178.77 401.44 171.3 385.61 182.52 401.52 189.76 417.34 178.77" class="st1"/>
    <polygon points="385.42 149.19 369.47 143.98 353.64 151.57 369.58 157.61 385.42 149.19" class="st1"/>
    <polygon points="369.58 157.61 353.64 151.57 337.82 162.51 353.77 168.8 369.58 157.61" class="st1"/>
    <polygon points="353.64 151.57 337.68 146.09 321.86 156.73 337.82 162.51 353.64 151.57" class="st1"/>
    <polygon points="321.55 130.78 305.55 126.69 289.73 132.93 305.73 136.78 321.55 130.78" class="st1"/>
    <polygon points="289.73 132.93 273.9 143.32 289.9 147.04 305.73 136.78 289.73 132.93" class="st1"/>
    <polygon points="273.71 129.63 257.89 140.29 273.9 143.32 289.73 132.93 273.71 129.63" class="st1"/>
    <polygon points="241.41 113.88 225.58 123.09 241.63 124.7 257.46 116.24 241.41 113.88" class="st1"/>
    <polygon points="225.58 123.09 209.74 134.44 225.81 135.94 241.63 124.7 225.58 123.09" class="st1"/>
    <polygon points="209.5 121.96 193.67 133.25 209.74 134.44 225.58 123.09 209.5 121.96" class="st1"/>
    <polygon points="177.02 110.49 161.18 120.58 177.3 120.79 193.14 110.49 177.02 110.49" class="st1"/>
    <polygon points="161.18 120.58 145.35 130.74 161.47 131.49 177.3 120.79 161.18 120.58" class="st1"/>
    <polygon points="145.04 120.46 129.21 129.97 145.35 130.74 161.18 120.58 145.04 120.46" class="st1"/>
    <polygon points="112.38 111.73 96.54 119.45 112.72 120.02 128.56 111.66 112.38 111.73" class="st1"/>
    <polygon points="96.54 119.45 80.72 126.97 96.9 128.16 112.72 120.02 96.54 119.45" class="st1"/>
    <polygon points="80.35 118.68 64.52 125.63 80.72 126.97 96.54 119.45 80.35 118.68" class="st1"/>
    <polygon points="607.51 214.67 623.3 224.79 625.24 224.09 629.38 222.58 639.19 219 623.39 208.01 607.51 214.67" class="st1"/>
    <polygon points="591.65 221.3 607.44 230.58 608.03 230.36 619.79 226.07 623.3 224.79 607.51 214.67 591.65 221.3" class="st1"/>
    <polygon points="575.84 211.98 591.65 221.3 607.51 214.67 591.71 204.57 575.84 211.98" class="st1"/>
    <polygon points="560.1 166.66 544.22 174.65 560.06 184.54 575.94 176.34 560.1 166.66" class="st1"/>
    <polygon points="544.22 174.65 528.35 183.38 544.19 193.06 560.06 184.54 544.22 174.65" class="st1"/>
    <polygon points="528.37 165.55 512.5 174.04 528.35 183.38 544.22 174.65 528.37 165.55" class="st1"/>
    <polygon points="496.62 152.39 512.5 149.54 511.48 149.61 496.6 150.69 482.15 149.79 480.73 149.7 496.62 152.39" class="st1"/>
    <polygon points="496.62 152.39 480.73 149.7 464.86 153.07 480.76 158.39 496.62 152.39" class="st1"/>
    <polygon points="464.86 153.07 480.73 149.7 477.62 149.6 464.82 149.22 456.23 149.25 448.95 149.28 464.86 153.07" class="st1"/>
    <polygon points="272.89 99.68 257.03 99.76 273.1 105.45 288.95 109.07 272.89 99.68" class="st1"/>
    <polygon points="256.59 83.41 240.49 77.99 224.61 83.57 240.72 86.31 256.59 83.41" class="st1"/>
    <polygon points="224.61 83.57 208.73 91.3 224.85 92.38 240.72 86.31 224.61 83.57" class="st1"/>
    <polygon points="208.48 82.98 192.6 91.59 208.73 91.3 224.61 83.57 208.48 82.98" class="st1"/>
    <polygon points="192.05 77.23 175.87 79.25 159.98 87.36 176.16 85.56 192.05 77.23" class="st1"/>
    <polygon points="176.16 85.56 159.98 87.36 144.1 95.55 160.28 94.21 176.16 85.56" class="st1"/>
    <polygon points="159.98 87.36 143.78 89.23 127.9 96.78 144.1 95.55 159.98 87.36" class="st1"/>
    <polygon points="671.11 188.2 686.91 201.59 702.85 195.79 687.04 181.84 671.11 188.2" class="st1"/>
    <polygon points="671.11 188.2 655.19 194.72 670.99 207.4 686.91 201.59 671.11 188.2" class="st1"/>
    <polygon points="655.3 175.5 639.39 182.52 655.19 194.72 671.11 188.2 655.3 175.5" class="st1"/>
    <polygon points="623.74 144.47 607.81 148.75 623.65 155.07 639.58 149.19 623.74 144.47" class="st1"/>
    <polygon points="607.81 148.75 591.89 153.81 607.74 161.57 623.65 155.07 607.81 148.75" class="st1"/>
    <polygon points="591.96 146.7 576.04 149.28 591.89 153.81 607.81 148.75 591.96 146.7" class="st1"/>
    <polygon points="320.19 102.19 304.11 77.9 288.19 75.81 304.27 94.94 320.19 102.19" class="st1"/>
    <polygon points="304.27 94.94 288.19 75.81 272.27 74.72 288.37 88.72 304.27 94.94" class="st1"/>
    <polygon points="272.27 74.72 288.19 75.81 272.08 63.84 256.16 66.47 272.27 74.72" class="st1"/>
    <polygon points="223.86 62.24 239.79 55.63 223.61 56.55 207.68 63.75 223.86 62.24" class="st1"/>
    <polygon points="223.61 56.55 207.41 59.63 191.48 66.78 207.68 63.75 223.61 56.55" class="st1"/>
    <polygon points="734.92 164.67 750.73 179.19 766.71 174.66 750.91 160.14 734.92 164.67" class="st1"/>
    <polygon points="718.95 169.92 734.75 184.36 750.73 179.19 734.92 164.67 718.95 169.92" class="st1"/>
    <polygon points="703.13 156.73 718.95 169.92 734.92 164.67 719.11 151.54 703.13 156.73" class="st1"/>
    <polygon points="687.61 130.49 679.83 132.31 671.62 134.23 687.46 134.92 703.45 130.78 687.61 130.49" class="st1"/>
    <polygon points="671.62 134.23 665.85 135.43 655.65 137.57 671.49 139.27 687.46 134.92 671.62 134.23" class="st1"/>
    <polygon points="384.04 117.11 367.96 80.12 351.97 82.49 368.05 118.39 384.04 117.11" class="st1"/>
    <polygon points="352.08 115.37 368.05 118.39 351.97 82.49 336.01 82.25 352.08 115.37" class="st1"/>
    <polygon points="351.97 82.49 335.87 57.92 319.9 59.79 336.01 82.25 351.97 82.49" class="st1"/>
    <polygon points="798.96 151.08 814.77 165.4 830.82 163.04 815.01 149.03 798.96 151.08" class="st1"/>
    <polygon points="782.93 153.51 798.74 167.99 814.77 165.4 798.96 151.08 782.93 153.51" class="st1"/>
    <polygon points="767.11 140.29 782.93 153.51 798.96 151.08 783.14 137.86 767.11 140.29" class="st1"/>
    <polygon points="735.65 116.13 751.49 119.26 767.53 116.24 751.7 111.48 735.65 116.13" class="st1"/>
    <polygon points="719.63 121.08 735.46 122.8 751.49 119.26 735.65 116.13 719.63 121.08" class="st1"/>
    <polygon points="416.09 98.7 432.13 84.46 416.02 55.27 399.99 65.52 416.09 98.7" class="st1"/>
    <polygon points="863.24 143.97 879.05 155.93 895.15 153.55 879.35 142.46 863.24 143.97" class="st1"/>
    <polygon points="847.15 145.53 862.96 158.3 879.05 155.93 863.24 143.97 847.15 145.53" class="st1"/>
    <polygon points="831.33 133.25 847.15 145.53 863.24 143.97 847.42 132.3 831.33 133.25" class="st1"/>
    <polygon points="799.9 102.04 815.76 111.04 831.86 110.49 816.01 100.73 799.9 102.04" class="st1"/>
    <polygon points="783.82 104.34 799.67 112.16 815.76 111.04 799.9 102.04 783.82 104.34" class="st1"/>
    <polygon points="767.97 99.76 783.82 104.34 799.9 102.04 784.05 95.3 767.97 99.76" class="st1"/>
    <polygon points="752.32 92.86 768.41 83.41 752.52 84.54 736.44 99.3 752.32 92.86" class="st1"/>
    <polygon points="736.44 99.3 720.38 118.01 736.25 105.34 752.32 92.86 736.44 99.3" class="st1"/>
    <polygon points="927.75 137.81 943.55 146.41 959.72 144.03 943.91 136.13 927.75 137.81" class="st1"/>
    <polygon points="911.6 139.41 927.4 148.79 943.55 146.41 927.75 137.81 911.6 139.41" class="st1"/>
    <polygon points="895.79 129.97 911.6 139.41 927.75 137.81 911.93 129.14 895.79 129.97" class="st1"/>
    <polygon points="864.42 101.97 880.27 111.29 896.43 111.66 880.58 102.98 864.42 101.97" class="st1"/>
    <polygon points="848.26 101.04 864.12 110.83 880.27 111.29 864.42 101.97 848.26 101.04" class="st1"/>
    <polygon points="832.4 91.59 848.26 101.04 864.42 101.97 848.55 92.72 832.4 91.59" class="st1"/>
    <polygon points="832.95 77.23 817.05 69.45 800.88 68.76 816.79 75.77 832.95 77.23" class="st1"/>
    <polygon points="800.64 75.74 816.79 75.77 800.88 68.76 784.75 70.33 800.64 75.74" class="st1"/>
    <polygon points="784.75 70.33 800.88 68.76 784.98 62.72 768.84 66.47 784.75 70.33" class="st1"/>
    <polygon points="1008.71 128.59 992.49 130.54 1008.28 136.87 1024.5 134.48 1008.71 128.59" class="st1"/>
    <polygon points="976.28 132.47 992.08 139.26 1008.28 136.87 992.49 130.54 976.28 132.47" class="st1"/>
    <polygon points="960.47 125.63 976.28 132.47 992.49 130.54 976.68 124.19 960.47 125.63" class="st1"/>
    <polygon points="945.02 111.27 961.24 110.88 945.39 104.97 929.17 104.64 945.02 111.27" class="st1"/>
    <polygon points="928.81 111.57 945.02 111.27 929.17 104.64 912.96 104.25 928.81 111.57" class="st1"/>
    <polygon points="912.96 104.25 929.17 104.64 913.31 97.93 897.1 96.78 912.96 104.25" class="st1"/>
    <polygon points="881.54 84.36 897.78 87.2 881.88 81.27 865.64 77.56 881.54 84.36" class="st1"/>
    <polygon points="865.33 81.67 881.54 84.36 865.64 77.56 849.43 74.15 865.33 81.67" class="st1"/>
    <polygon points="849.43 74.15 865.64 77.56 849.73 70.8 833.52 66.78 849.43 74.15" class="st1"/>
    <polygon points="512.5 253.25 496.71 259.45 502.85 261.69 512.5 265.21 522.15 261.69 528.29 259.45 512.5 253.25" class="st1"/>
    <polygon points="512.5 253.25 496.69 247.02 480.9 253.69 489.74 256.91 496.71 259.45 512.5 253.25" class="st1"/>
    <polygon points="512.5 240.31 496.69 247.02 512.5 253.25 528.3 247.02 512.5 240.31" class="st1"/>
    <polygon points="480.88 240.74 465.05 234.37 449.26 242.14 461.41 246.57 465.09 247.91 480.88 240.74" class="st1"/>
    <polygon points="496.68 233.49 480.86 226.51 465.05 234.37 480.88 240.74 496.68 233.49" class="st1"/>
    <polygon points="512.5 240.31 496.68 233.49 480.88 240.74 496.69 247.02 512.5 240.31" class="st1"/>
    <polygon points="496.67 218.49 512.5 226.09 528.33 218.49 512.5 210.25 496.67 218.49" class="st1"/>
    <polygon points="512.5 226.09 528.32 233.49 544.14 226.51 528.33 218.49 512.5 226.09" class="st1"/>
    <polygon points="512.5 226.09 496.68 233.49 512.5 240.31 528.32 233.49 512.5 226.09" class="st1"/>
    <polygon points="465.05 234.37 449.21 227.88 433.41 236.36 437.46 237.84 449.26 242.14 465.05 234.37" class="st1"/>
    <polygon points="449.21 227.88 433.35 221.3 417.56 230.58 433.41 236.36 449.21 227.88" class="st1"/>
    <polygon points="465.01 219.32 449.16 211.98 433.35 221.3 449.21 227.88 465.01 219.32" class="st1"/>
    <polygon points="399.76 224.09 401.69 224.79 417.48 214.67 401.6 208.01 385.81 219 395.62 222.58 399.76 224.09" class="st1"/>
    <polygon points="417.48 214.67 433.29 204.57 417.41 197.14 401.6 208.01 417.48 214.67" class="st1"/>
    <polygon points="433.35 221.3 449.16 211.98 433.29 204.57 417.48 214.67 433.35 221.3" class="st1"/>
    <polygon points="464.94 184.54 449.06 176.34 433.23 186.53 449.11 194.51 464.94 184.54" class="st1"/>
    <polygon points="464.97 202.58 480.81 193.06 464.94 184.54 449.11 194.51 464.97 202.58" class="st1"/>
    <polygon points="449.16 211.98 464.97 202.58 449.11 194.51 433.29 204.57 449.16 211.98" class="st1"/>
    <polygon points="385.21 218.78 385.81 219 401.6 208.01 385.71 201.34 369.92 213.21 373.16 214.39 385.21 218.78" class="st1"/>
    <polygon points="363.84 210.99 364.14 211.1 369.92 213.21 385.71 201.34 369.81 194.72 354.01 207.4 359.21 209.3 361.39 210.1 363.84 210.99" class="st1"/>
    <polygon points="401.52 189.76 385.61 182.52 369.81 194.72 385.71 201.34 401.52 189.76" class="st1"/>
    <polygon points="353.88 188.2 337.95 181.84 322.15 195.79 338.09 201.59 353.88 188.2" class="st1"/>
    <polygon points="369.7 175.5 353.77 168.8 337.95 181.84 353.88 188.2 369.7 175.5" class="st1"/>
    <polygon points="385.61 182.52 369.7 175.5 353.88 188.2 369.81 194.72 385.61 182.52" class="st1"/>
    <polygon points="401.35 155.07 385.42 149.19 369.58 157.61 385.51 164.22 401.35 155.07" class="st1"/>
    <polygon points="417.26 161.57 401.35 155.07 385.51 164.22 401.44 171.3 417.26 161.57" class="st1"/>
    <polygon points="401.44 171.3 385.51 164.22 369.7 175.5 385.61 182.52 401.44 171.3" class="st1"/>
    <polygon points="322.01 175.69 306.21 189.97 322.15 195.79 337.95 181.84 322.01 175.69" class="st1"/>
    <polygon points="306.05 169.92 290.25 184.36 306.21 189.97 322.01 175.69 306.05 169.92" class="st1"/>
    <polygon points="337.82 162.51 321.86 156.73 306.05 169.92 322.01 175.69 337.82 162.51" class="st1"/>
    <polygon points="274.09 160.14 258.29 174.66 274.27 179.19 290.07 164.67 274.09 160.14" class="st1"/>
    <polygon points="289.9 147.04 274.09 160.14 290.07 164.67 305.89 151.54 289.9 147.04" class="st1"/>
    <polygon points="305.89 151.54 290.07 164.67 306.05 169.92 321.86 156.73 305.89 151.54" class="st1"/>
    <polygon points="337.54 134.92 321.55 130.78 305.73 136.78 321.71 141.15 337.54 134.92" class="st1"/>
    <polygon points="353.51 139.27 337.54 134.92 321.71 141.15 337.68 146.09 353.51 139.27" class="st1"/>
    <polygon points="337.68 146.09 321.71 141.15 305.89 151.54 321.86 156.73 337.68 146.09" class="st1"/>
    <polygon points="258.09 156.47 242.28 171 258.29 174.66 274.09 160.14 258.09 156.47" class="st1"/>
    <polygon points="242.07 153.51 226.26 167.99 242.28 171 258.09 156.47 242.07 153.51" class="st1"/>
    <polygon points="257.89 140.29 242.07 153.51 258.09 156.47 273.9 143.32 257.89 140.29" class="st1"/>
    <polygon points="209.99 149.03 194.18 163.04 210.22 165.4 226.04 151.08 209.99 149.03" class="st1"/>
    <polygon points="225.81 135.94 209.99 149.03 226.04 151.08 241.85 137.86 225.81 135.94" class="st1"/>
    <polygon points="241.85 137.86 226.04 151.08 242.07 153.51 257.89 140.29 241.85 137.86" class="st1"/>
    <polygon points="257.46 116.24 241.63 124.7 257.68 126.88 273.51 119.26 257.46 116.24" class="st1"/>
    <polygon points="273.51 119.26 257.68 126.88 273.71 129.63 289.54 122.8 273.51 119.26" class="st1"/>
    <polygon points="257.68 126.88 241.85 137.86 257.89 140.29 273.71 129.63 257.68 126.88" class="st1"/>
    <polygon points="193.93 147.2 178.11 160.67 194.18 163.04 209.99 149.03 193.93 147.2" class="st1"/>
    <polygon points="177.85 145.53 162.04 158.3 178.11 160.67 193.93 147.2 177.85 145.53" class="st1"/>
    <polygon points="193.67 133.25 177.85 145.53 193.93 147.2 209.74 134.44 193.67 133.25" class="st1"/>
    <polygon points="145.65 142.46 129.84 153.55 145.95 155.93 161.76 143.97 145.65 142.46" class="st1"/>
    <polygon points="161.47 131.49 145.65 142.46 161.76 143.97 177.58 132.3 161.47 131.49" class="st1"/>
    <polygon points="177.58 132.3 161.76 143.97 177.85 145.53 193.67 133.25 177.58 132.3" class="st1"/>
    <polygon points="193.14 110.49 177.3 120.79 193.4 121.22 209.24 111.04 193.14 110.49" class="st1"/>
    <polygon points="209.24 111.04 193.4 121.22 209.5 121.96 225.33 112.16 209.24 111.04" class="st1"/>
    <polygon points="193.4 121.22 177.58 132.3 193.67 133.25 209.5 121.96 193.4 121.22" class="st1"/>
    <polygon points="129.53 140.95 113.73 151.17 129.84 153.55 145.65 142.46 129.53 140.95" class="st1"/>
    <polygon points="113.4 139.41 97.6 148.79 113.73 151.17 129.53 140.95 113.4 139.41" class="st1"/>
    <polygon points="129.21 129.97 113.4 139.41 129.53 140.95 145.35 130.74 129.21 129.97" class="st1"/>
    <polygon points="81.09 136.13 65.28 144.03 81.45 146.41 97.25 137.81 81.09 136.13" class="st1"/>
    <polygon points="96.9 128.16 81.09 136.13 97.25 137.81 113.07 129.14 96.9 128.16" class="st1"/>
    <polygon points="113.07 129.14 97.25 137.81 113.4 139.41 129.21 129.97 113.07 129.14" class="st1"/>
    <polygon points="128.56 111.66 112.72 120.02 128.89 120.32 144.73 111.29 128.56 111.66" class="st1"/>
    <polygon points="144.73 111.29 128.89 120.32 145.04 120.46 160.88 110.83 144.73 111.29" class="st1"/>
    <polygon points="128.89 120.32 113.07 129.14 129.21 129.97 145.04 120.46 128.89 120.32" class="st1"/>
    <polygon points="64.91 134.35 49.11 141.65 65.28 144.03 81.09 136.13 64.91 134.35" class="st1"/>
    <polygon points="48.72 132.47 32.92 139.26 49.11 141.65 64.91 134.35 48.72 132.47" class="st1"/>
    <polygon points="64.52 125.63 48.72 132.47 64.91 134.35 80.72 126.97 64.52 125.63" class="st1"/>
    <polygon points="16.29 128.59 .5 134.48 16.71 136.87 32.51 130.54 16.29 128.59" class="st1"/>
    <polygon points="48.32 124.19 32.1 122.69 16.29 128.59 32.51 130.54 48.32 124.19" class="st1"/>
    <polygon points="48.32 124.19 32.51 130.54 48.72 132.47 64.52 125.63 48.32 124.19" class="st1"/>
    <polygon points="79.98 111.27 63.76 110.88 47.92 116.79 64.14 117.77 79.98 111.27" class="st1"/>
    <polygon points="96.19 111.57 79.98 111.27 64.14 117.77 80.35 118.68 96.19 111.57" class="st1"/>
    <polygon points="80.35 118.68 64.14 117.77 48.32 124.19 64.52 125.63 80.35 118.68" class="st1"/>
    <polygon points="575.79 227.88 559.95 234.37 575.74 242.14 587.54 237.84 591.58 236.36 575.79 227.88" class="st1"/>
    <polygon points="544.14 226.51 559.95 234.37 575.79 227.88 559.99 219.32 544.14 226.51" class="st1"/>
    <polygon points="559.99 219.32 575.79 227.88 591.65 221.3 575.84 211.98 559.99 219.32" class="st1"/>
    <polygon points="512.5 210.25 528.33 218.49 544.17 210.62 528.34 201.7 512.5 210.25" class="st1"/>
    <polygon points="528.34 201.7 544.17 210.62 560.02 202.58 544.19 193.06 528.34 201.7" class="st1"/>
    <polygon points="544.17 210.62 559.99 219.32 575.84 211.98 560.02 202.58 544.17 210.62" class="st1"/>
    <polygon points="575.94 176.34 560.06 184.54 575.89 194.51 591.77 186.53 575.94 176.34" class="st1"/>
    <polygon points="591.77 186.53 575.89 194.51 591.71 204.57 607.59 197.14 591.77 186.53" class="st1"/>
    <polygon points="560.02 202.58 575.84 211.98 591.71 204.57 575.89 194.51 560.02 202.58" class="st1"/>
    <polygon points="496.66 201.7 512.5 210.25 528.34 201.7 512.5 192.51 496.66 201.7" class="st1"/>
    <polygon points="496.66 201.7 512.5 192.51 496.65 183.38 480.81 193.06 496.66 201.7" class="st1"/>
    <polygon points="512.5 174.04 496.65 183.38 512.5 192.51 528.35 183.38 512.5 174.04" class="st1"/>
    <polygon points="480.78 174.65 464.9 166.66 449.06 176.34 464.94 184.54 480.78 174.65" class="st1"/>
    <polygon points="496.63 165.55 480.76 158.39 464.9 166.66 480.78 174.65 496.63 165.55" class="st1"/>
    <polygon points="512.5 174.04 496.63 165.55 480.78 174.65 496.65 183.38 512.5 174.04" class="st1"/>
    <polygon points="496.62 152.39 512.5 157.91 528.38 152.39 512.5 149.54 496.62 152.39" class="st1"/>
    <polygon points="528.38 152.39 512.5 157.91 528.37 165.55 544.24 158.39 528.38 152.39" class="st1"/>
    <polygon points="512.5 157.91 496.63 165.55 512.5 174.04 528.37 165.55 512.5 157.91" class="st1"/>
    <polygon points="464.9 166.66 449.01 159.74 433.17 168.66 449.06 176.34 464.9 166.66" class="st1"/>
    <polygon points="449.01 159.74 433.11 153.81 417.26 161.57 433.17 168.66 449.01 159.74" class="st1"/>
    <polygon points="464.86 153.07 448.95 149.28 433.11 153.81 449.01 159.74 464.86 153.07" class="st1"/>
    <polygon points="417.19 148.75 401.26 144.47 385.42 149.19 401.35 155.07 417.19 148.75" class="st1"/>
    <polygon points="433.04 146.7 432.83 146.67 430.04 146.38 417.1 145.03 401.26 144.47 417.19 148.75 433.04 146.7" class="st1"/>
    <polygon points="448.95 149.28 433.04 146.7 417.19 148.75 433.11 153.81 448.95 149.28" class="st1"/>
    <polygon points="401.26 144.47 385.31 140.86 369.47 143.98 385.42 149.19 401.26 144.47" class="st1"/>
    <polygon points="385.31 140.86 374.68 138.67 369.35 137.57 353.51 139.27 369.47 143.98 385.31 140.86" class="st1"/>
    <polygon points="353.38 134.23 345.17 132.31 337.38 130.49 321.55 130.78 337.54 134.92 353.38 134.23" class="st1"/>
    <polygon points="337.38 130.49 332.81 129.2 325.48 127.14 322.02 126.16 321.38 125.98 305.55 126.69 321.55 130.78 337.38 130.49" class="st1"/>
    <polygon points="321.38 125.98 318.44 125.08 305.37 121.08 289.54 122.8 305.55 126.69 321.38 125.98" class="st1"/>
    <polygon points="273.3 111.48 257.46 116.24 273.51 119.26 289.34 116.13 273.3 111.48" class="st1"/>
    <polygon points="305.18 119.2 303.25 118.33 289.15 112.02 273.3 111.48 289.34 116.13 305.18 119.2" class="st1"/>
    <polygon points="257.25 107.52 241.41 113.88 257.46 116.24 273.3 111.48 257.25 107.52" class="st1"/>
    <polygon points="241.18 104.34 225.33 112.16 241.41 113.88 257.25 107.52 241.18 104.34" class="st1"/>
    <polygon points="257.03 99.76 241.18 104.34 257.25 107.52 273.1 105.45 257.03 99.76" class="st1"/>
    <polygon points="208.99 100.73 193.14 110.49 209.24 111.04 225.1 102.04 208.99 100.73" class="st1"/>
    <polygon points="224.85 92.38 208.99 100.73 225.1 102.04 240.95 95.3 224.85 92.38" class="st1"/>
    <polygon points="240.95 95.3 225.1 102.04 241.18 104.34 257.03 99.76 240.95 95.3" class="st1"/>
    <polygon points="256.59 83.41 240.72 86.31 256.82 91.89 272.68 92.86 256.59 83.41" class="st1"/>
    <polygon points="256.82 91.89 272.89 99.68 288.75 105.34 272.68 92.86 256.82 91.89" class="st1"/>
    <polygon points="256.82 91.89 240.95 95.3 257.03 99.76 272.89 99.68 256.82 91.89" class="st1"/>
    <polygon points="192.87 100.51 177.02 110.49 193.14 110.49 208.99 100.73 192.87 100.51" class="st1"/>
    <polygon points="176.74 101.04 160.88 110.83 177.02 110.49 192.87 100.51 176.74 101.04" class="st1"/>
    <polygon points="192.6 91.59 176.74 101.04 192.87 100.51 208.73 91.3 192.6 91.59" class="st1"/>
    <polygon points="144.42 102.98 128.56 111.66 144.73 111.29 160.58 101.97 144.42 102.98" class="st1"/>
    <polygon points="176.45 92.72 160.28 94.21 144.42 102.98 160.58 101.97 176.45 92.72" class="st1"/>
    <polygon points="176.45 92.72 160.58 101.97 176.74 101.04 192.6 91.59 176.45 92.72" class="st1"/>
    <polygon points="208.21 75.77 192.05 77.23 176.16 85.56 192.32 83.88 208.21 75.77" class="st1"/>
    <polygon points="224.36 75.74 208.21 75.77 192.32 83.88 208.48 82.98 224.36 75.74" class="st1"/>
    <polygon points="208.48 82.98 192.32 83.88 176.45 92.72 192.6 91.59 208.48 82.98" class="st1"/>
    <polygon points="144.42 102.98 128.24 103.72 112.38 111.73 128.56 111.66 144.42 102.98" class="st1"/>
    <polygon points="128.24 103.72 112.04 104.25 96.19 111.57 112.38 111.73 128.24 103.72" class="st1"/>
    <polygon points="144.1 95.55 127.9 96.78 112.04 104.25 128.24 103.72 144.1 95.55" class="st1"/>
    <polygon points="95.83 104.64 79.6 104.97 63.76 110.88 79.98 111.27 95.83 104.64" class="st1"/>
    <polygon points="111.69 97.93 95.46 99.05 79.6 104.97 95.83 104.64 111.69 97.93" class="st1"/>
    <polygon points="127.9 96.78 111.69 97.93 95.83 104.64 112.04 104.25 127.9 96.78" class="st1"/>
    <polygon points="143.46 84.36 127.22 87.2 111.34 93.13 127.57 91.17 143.46 84.36" class="st1"/>
    <polygon points="159.67 81.67 143.46 84.36 127.57 91.17 143.78 89.23 159.67 81.67" class="st1"/>
    <polygon points="143.78 89.23 127.57 91.17 111.69 97.93 127.9 96.78 143.78 89.23" class="st1"/>
    <polygon points="623.39 208.01 639.19 219 639.79 218.78 651.84 214.39 655.08 213.21 639.29 201.34 623.39 208.01" class="st1"/>
    <polygon points="623.48 189.76 607.59 197.14 623.39 208.01 639.29 201.34 623.48 189.76" class="st1"/>
    <polygon points="639.39 182.52 623.48 189.76 639.29 201.34 655.19 194.72 639.39 182.52" class="st1"/>
    <polygon points="591.83 168.66 575.94 176.34 591.77 186.53 607.66 178.77 591.83 168.66" class="st1"/>
    <polygon points="607.74 161.57 591.83 168.66 607.66 178.77 623.56 171.3 607.74 161.57" class="st1"/>
    <polygon points="623.56 171.3 607.66 178.77 623.48 189.76 639.39 182.52 623.56 171.3" class="st1"/>
    <polygon points="639.58 149.19 623.65 155.07 639.48 164.22 655.41 157.61 639.58 149.19" class="st1"/>
    <polygon points="655.41 157.61 639.48 164.22 655.3 175.5 671.23 168.8 655.41 157.61" class="st1"/>
    <polygon points="639.48 164.22 623.56 171.3 639.39 182.52 655.3 175.5 639.48 164.22" class="st1"/>
    <polygon points="575.99 159.74 560.1 166.66 575.94 176.34 591.83 168.66 575.99 159.74" class="st1"/>
    <polygon points="560.14 153.07 544.24 158.39 560.1 166.66 575.99 159.74 560.14 153.07" class="st1"/>
    <polygon points="576.04 149.28 560.14 153.07 575.99 159.74 591.89 153.81 576.04 149.28" class="st1"/>
    <polygon points="528.38 152.39 544.27 149.7 542.85 149.79 528.39 150.69 513.52 149.61 512.5 149.54 528.38 152.39" class="st1"/>
    <polygon points="560.14 153.07 576.04 149.28 568.77 149.25 560.18 149.22 547.38 149.6 544.27 149.7 560.14 153.07" class="st1"/>
    <polygon points="272.68 92.86 288.56 99.3 272.48 84.54 256.59 83.41 272.68 92.86" class="st1"/>
    <polygon points="272.48 84.54 288.56 99.3 304.45 109.72 288.37 88.72 272.48 84.54" class="st1"/>
    <polygon points="272.48 84.54 256.38 75.24 240.49 77.99 256.59 83.41 272.48 84.54" class="st1"/>
    <polygon points="256.38 75.24 240.25 70.33 224.36 75.74 240.49 77.99 256.38 75.24" class="st1"/>
    <polygon points="272.27 74.72 256.16 66.47 240.25 70.33 256.38 75.24 272.27 74.72" class="st1"/>
    <polygon points="224.11 68.76 207.95 69.45 192.05 77.23 208.21 75.77 224.11 68.76" class="st1"/>
    <polygon points="224.11 68.76 240.02 62.72 223.86 62.24 207.95 69.45 224.11 68.76" class="st1"/>
    <polygon points="256.16 66.47 240.02 62.72 224.11 68.76 240.25 70.33 256.16 66.47" class="st1"/>
    <polygon points="272.08 63.84 255.94 57.58 240.02 62.72 256.16 66.47 272.08 63.84" class="st1"/>
    <polygon points="207.95 69.45 191.77 71.35 175.87 79.25 192.05 77.23 207.95 69.45" class="st1"/>
    <polygon points="191.77 71.35 175.57 74.15 159.67 81.67 175.87 79.25 191.77 71.35" class="st1"/>
    <polygon points="207.68 63.75 191.48 66.78 175.57 74.15 191.77 71.35 207.68 63.75" class="st1"/>
    <polygon points="159.36 77.56 143.12 81.27 127.22 87.2 143.46 84.36 159.36 77.56" class="st1"/>
    <polygon points="175.27 70.8 159.04 75.34 143.12 81.27 159.36 77.56 175.27 70.8" class="st1"/>
    <polygon points="191.48 66.78 175.27 70.8 159.36 77.56 175.57 74.15 191.48 66.78" class="st1"/>
    <polygon points="207.13 57.66 190.9 63.45 174.96 69.39 191.2 64.15 207.13 57.66" class="st1"/>
    <polygon points="207.41 59.63 191.2 64.15 175.27 70.8 191.48 66.78 207.41 59.63" class="st1"/>
    <polygon points="687.04 181.84 702.85 195.79 718.79 189.97 702.99 175.69 687.04 181.84" class="st1"/>
    <polygon points="671.23 168.8 687.04 181.84 702.99 175.69 687.18 162.51 671.23 168.8" class="st1"/>
    <polygon points="687.18 162.51 702.99 175.69 718.95 169.92 703.13 156.73 687.18 162.51" class="st1"/>
    <polygon points="655.53 143.98 639.58 149.19 655.41 157.61 671.36 151.57 655.53 143.98" class="st1"/>
    <polygon points="671.49 139.27 655.53 143.98 671.36 151.57 687.32 146.09 671.49 139.27" class="st1"/>
    <polygon points="687.32 146.09 671.36 151.57 687.18 162.51 703.13 156.73 687.32 146.09" class="st1"/>
    <polygon points="703.45 130.78 687.46 134.92 703.29 141.15 719.27 136.78 703.45 130.78" class="st1"/>
    <polygon points="703.29 141.15 719.11 151.54 735.1 147.04 719.27 136.78 703.29 141.15" class="st1"/>
    <polygon points="687.32 146.09 703.13 156.73 719.11 151.54 703.29 141.15 687.32 146.09" class="st1"/>
    <polygon points="639.69 140.86 623.74 144.47 639.58 149.19 655.53 143.98 639.69 140.86" class="st1"/>
    <polygon points="623.85 143.93 613.65 144.63 607.9 145.03 623.74 144.47 639.69 140.86 632.98 142.16 623.85 143.93" class="st1"/>
    <polygon points="336.13 109.48 320.05 80.38 304.11 77.9 320.19 102.19 336.13 109.48" class="st1"/>
    <polygon points="320.05 80.38 303.94 60.98 288 62.1 304.11 77.9 320.05 80.38" class="st1"/>
    <polygon points="336.01 82.25 319.9 59.79 303.94 60.98 320.05 80.38 336.01 82.25" class="st1"/>
    <polygon points="750.91 160.14 766.71 174.66 782.72 171 766.91 156.47 750.91 160.14" class="st1"/>
    <polygon points="735.1 147.04 750.91 160.14 766.91 156.47 751.1 143.32 735.1 147.04" class="st1"/>
    <polygon points="751.1 143.32 766.91 156.47 782.93 153.51 767.11 140.29 751.1 143.32" class="st1"/>
    <polygon points="703.45 130.78 719.27 136.78 735.27 132.93 719.45 126.69 703.45 130.78" class="st1"/>
    <polygon points="719.45 126.69 735.27 132.93 751.29 129.63 735.46 122.8 719.45 126.69" class="st1"/>
    <polygon points="735.27 132.93 751.1 143.32 767.11 140.29 751.29 129.63 735.27 132.93" class="st1"/>
    <polygon points="751.49 119.26 767.32 126.88 783.37 124.7 767.53 116.24 751.49 119.26" class="st1"/>
    <polygon points="767.32 126.88 783.14 137.86 799.19 135.94 783.37 124.7 767.32 126.88" class="st1"/>
    <polygon points="751.29 129.63 767.11 140.29 783.14 137.86 767.32 126.88 751.29 129.63" class="st1"/>
    <polygon points="703.61 125.98 702.98 126.16 699.51 127.14 692.18 129.2 687.61 130.49 703.45 130.78 719.45 126.69 703.61 125.98" class="st1"/>
    <polygon points="400.06 110.06 383.97 74.13 367.96 80.12 384.04 117.11 400.06 110.06" class="st1"/>
    <polygon points="815.01 149.03 830.82 163.04 846.88 160.67 831.07 147.2 815.01 149.03" class="st1"/>
    <polygon points="799.19 135.94 815.01 149.03 831.07 147.2 815.25 134.44 799.19 135.94" class="st1"/>
    <polygon points="815.25 134.44 831.07 147.2 847.15 145.53 831.33 133.25 815.25 134.44" class="st1"/>
    <polygon points="767.53 116.24 783.37 124.7 799.42 123.09 783.59 113.88 767.53 116.24" class="st1"/>
    <polygon points="783.59 113.88 799.42 123.09 815.5 121.96 799.67 112.16 783.59 113.88" class="st1"/>
    <polygon points="799.42 123.09 815.25 134.44 831.33 133.25 815.5 121.96 799.42 123.09" class="st1"/>
    <polygon points="815.76 111.04 831.6 121.22 847.7 120.79 831.86 110.49 815.76 111.04" class="st1"/>
    <polygon points="831.6 121.22 847.42 132.3 863.53 131.49 847.7 120.79 831.6 121.22" class="st1"/>
    <polygon points="815.5 121.96 831.33 133.25 847.42 132.3 831.6 121.22 815.5 121.96" class="st1"/>
    <polygon points="751.7 111.48 767.53 116.24 783.59 113.88 767.75 107.52 751.7 111.48" class="st1"/>
    <polygon points="735.85 112.02 751.7 111.48 767.75 107.52 751.9 105.45 735.85 112.02" class="st1"/>
    <polygon points="751.9 105.45 767.75 107.52 783.82 104.34 767.97 99.76 751.9 105.45" class="st1"/>
    <polygon points="736.05 109.07 751.9 105.45 767.97 99.76 752.11 99.68 736.05 109.07" class="st1"/>
    <polygon points="752.32 92.86 768.18 91.89 784.28 86.31 768.41 83.41 752.32 92.86" class="st1"/>
    <polygon points="768.18 91.89 784.05 95.3 800.15 92.38 784.28 86.31 768.18 91.89" class="st1"/>
    <polygon points="752.11 99.68 767.97 99.76 784.05 95.3 768.18 91.89 752.11 99.68" class="st1"/>
    <polygon points="720.73 94.94 704.66 122.63 720.55 109.72 736.63 88.72 720.73 94.94" class="st1"/>
    <polygon points="879.35 142.46 895.15 153.55 911.27 151.17 895.47 140.95 879.35 142.46" class="st1"/>
    <polygon points="863.53 131.49 879.35 142.46 895.47 140.95 879.65 130.74 863.53 131.49" class="st1"/>
    <polygon points="879.65 130.74 895.47 140.95 911.6 139.41 895.79 129.97 879.65 130.74" class="st1"/>
    <polygon points="831.86 110.49 847.7 120.79 863.82 120.58 847.98 110.49 831.86 110.49" class="st1"/>
    <polygon points="847.98 110.49 863.82 120.58 879.96 120.46 864.12 110.83 847.98 110.49" class="st1"/>
    <polygon points="863.82 120.58 879.65 130.74 895.79 129.97 879.96 120.46 863.82 120.58" class="st1"/>
    <polygon points="880.27 111.29 896.11 120.32 912.27 120.02 896.43 111.66 880.27 111.29" class="st1"/>
    <polygon points="896.11 120.32 911.93 129.14 928.1 128.16 912.27 120.02 896.11 120.32" class="st1"/>
    <polygon points="879.96 120.46 895.79 129.97 911.93 129.14 896.11 120.32 879.96 120.46" class="st1"/>
    <polygon points="816.01 100.73 831.86 110.49 847.98 110.49 832.12 100.51 816.01 100.73" class="st1"/>
    <polygon points="800.15 92.38 816.01 100.73 832.12 100.51 816.26 91.3 800.15 92.38" class="st1"/>
    <polygon points="816.26 91.3 832.12 100.51 848.26 101.04 832.4 91.59 816.26 91.3" class="st1"/>
    <polygon points="784.28 86.31 800.39 83.57 784.51 77.99 768.41 83.41 784.28 86.31" class="st1"/>
    <polygon points="800.39 83.57 816.52 82.98 800.64 75.74 784.51 77.99 800.39 83.57" class="st1"/>
    <polygon points="800.39 83.57 816.26 91.3 832.4 91.59 816.52 82.98 800.39 83.57" class="st1"/>
    <polygon points="832.67 83.88 848.84 85.56 832.95 77.23 816.79 75.77 832.67 83.88" class="st1"/>
    <polygon points="848.55 92.72 864.71 94.21 848.84 85.56 832.67 83.88 848.55 92.72" class="st1"/>
    <polygon points="832.4 91.59 848.55 92.72 832.67 83.88 816.52 82.98 832.4 91.59" class="st1"/>
    <polygon points="784.51 77.99 768.62 75.24 752.52 84.54 768.41 83.41 784.51 77.99" class="st1"/>
    <polygon points="752.52 84.54 768.62 75.24 752.73 74.72 736.63 88.72 752.52 84.54" class="st1"/>
    <polygon points="784.75 70.33 768.84 66.47 752.73 74.72 768.62 75.24 784.75 70.33" class="st1"/>
    <polygon points="720.73 94.94 736.81 75.81 720.89 77.9 704.8 102.19 720.73 94.94" class="st1"/>
    <polygon points="736.81 75.81 752.92 63.84 737 62.1 720.89 77.9 736.81 75.81" class="st1"/>
    <polygon points="752.73 74.72 768.84 66.47 752.92 63.84 736.81 75.81 752.73 74.72" class="st1"/>
    <polygon points="784.98 62.72 801.14 62.24 785.21 55.63 769.06 57.58 784.98 62.72" class="st1"/>
    <polygon points="784.98 62.72 769.06 57.58 752.92 63.84 768.84 66.47 784.98 62.72" class="st1"/>
    <polygon points="704.8 102.19 720.89 77.9 704.95 80.38 688.87 109.48 704.8 102.19" class="st1"/>
    <polygon points="704.95 80.38 688.99 82.25 672.92 115.37 688.87 109.48 704.95 80.38" class="st1"/>
    <polygon points="704.95 80.38 721.05 60.98 705.1 59.79 688.99 82.25 704.95 80.38" class="st1"/>
    <polygon points="656.95 118.39 673.03 82.49 657.04 80.12 640.95 117.11 656.95 118.39" class="st1"/>
    <polygon points="673.03 82.49 689.13 57.92 673.14 54.72 657.04 80.12 673.03 82.49" class="st1"/>
    <polygon points="705.1 59.79 689.13 57.92 673.03 82.49 688.99 82.25 705.1 59.79" class="st1"/>
    <polygon points="640.95 117.11 657.04 80.12 641.03 74.13 624.94 110.06 640.95 117.11" class="st1"/>
    <polygon points="641.03 74.13 625.01 65.52 608.91 98.7 624.94 110.06 641.03 74.13" class="st1"/>
    <polygon points="943.91 136.13 959.72 144.03 975.89 141.65 960.09 134.35 943.91 136.13" class="st1"/>
    <polygon points="928.1 128.16 943.91 136.13 960.09 134.35 944.28 126.97 928.1 128.16" class="st1"/>
    <polygon points="944.28 126.97 960.09 134.35 976.28 132.47 960.47 125.63 944.28 126.97" class="st1"/>
    <polygon points="896.43 111.66 912.27 120.02 928.45 119.45 912.62 111.73 896.43 111.66" class="st1"/>
    <polygon points="928.45 119.45 944.65 118.68 928.81 111.57 912.62 111.73 928.45 119.45" class="st1"/>
    <polygon points="928.45 119.45 944.28 126.97 960.47 125.63 944.65 118.68 928.45 119.45" class="st1"/>
    <polygon points="960.86 117.77 977.08 116.79 961.24 110.88 945.02 111.27 960.86 117.77" class="st1"/>
    <polygon points="976.68 124.19 992.9 122.69 977.08 116.79 960.86 117.77 976.68 124.19" class="st1"/>
    <polygon points="960.47 125.63 976.68 124.19 960.86 117.77 944.65 118.68 960.47 125.63" class="st1"/>
    <polygon points="896.43 111.66 912.62 111.73 896.76 103.72 880.58 102.98 896.43 111.66" class="st1"/>
    <polygon points="880.58 102.98 896.76 103.72 880.9 95.55 864.71 94.21 880.58 102.98" class="st1"/>
    <polygon points="896.76 103.72 912.96 104.25 897.1 96.78 880.9 95.55 896.76 103.72" class="st1"/>
    <polygon points="848.84 85.56 865.02 87.36 849.13 79.25 832.95 77.23 848.84 85.56" class="st1"/>
    <polygon points="865.02 87.36 881.22 89.23 865.33 81.67 849.13 79.25 865.02 87.36" class="st1"/>
    <polygon points="880.9 95.55 897.1 96.78 881.22 89.23 865.02 87.36 880.9 95.55" class="st1"/>
    <polygon points="897.43 91.17 913.66 93.13 897.78 87.2 881.54 84.36 897.43 91.17" class="st1"/>
    <polygon points="913.31 97.93 929.53 99.05 913.66 93.13 897.43 91.17 913.31 97.93" class="st1"/>
    <polygon points="897.1 96.78 913.31 97.93 897.43 91.17 881.22 89.23 897.1 96.78" class="st1"/>
    <polygon points="832.95 77.23 849.13 79.25 833.23 71.35 817.05 69.45 832.95 77.23" class="st1"/>
    <polygon points="833.23 71.35 817.32 63.75 801.14 62.24 817.05 69.45 833.23 71.35" class="st1"/>
    <polygon points="833.23 71.35 849.43 74.15 833.52 66.78 817.32 63.75 833.23 71.35" class="st1"/>
    <polygon points="833.52 66.78 817.59 59.63 801.39 56.55 817.32 63.75 833.52 66.78" class="st1"/>
    <polygon points="833.8 64.15 850.04 69.39 834.09 63.45 817.87 57.66 833.8 64.15" class="st1"/>
    <polygon points="849.73 70.8 865.96 75.34 850.04 69.39 833.8 64.15 849.73 70.8" class="st1"/>
    <polygon points="833.52 66.78 849.73 70.8 833.8 64.15 817.59 59.63 833.52 66.78" class="st1"/>
    <polygon points="591.71 204.57 607.51 214.67 623.39 208.01 607.59 197.14 591.71 204.57" class="st1"/>
    <polygon points="223.61 56.55 239.54 49.82 223.35 52.8 207.41 59.63 223.61 56.55" class="st1"/>
    <polygon points="303.42 28.57 287.23 30.58 271.24 35.18 287.43 33.05 303.42 28.57" class="st1"/>
    <polygon points="416.02 55.27 432.07 44.41 415.95 28.54 399.91 35.81 416.02 55.27" class="st1"/>
    <polygon points="544.67 80.96 560.75 53.13 544.69 38.5 528.59 59.63 544.67 80.96" class="st1"/>
    <polygon points="496.39 10.88 480.26 8.59 464.17 11.57 480.29 16.54 496.39 10.88" class="st1"/>
    <polygon points="737.18 49.54 753.33 44.34 737.37 39.55 721.22 46.18 737.18 49.54" class="st1"/>
    <polygon points="673.27 34.37 689.41 26.7 673.4 22.73 657.25 29.38 673.27 34.37" class="st1"/>
    <polygon points="609.12 15.57 625.27 13.59 609.21 11.8 593.05 12.32 609.12 15.57" class="st1"/>
    <polygon points="303.94 60.98 287.82 49.54 271.88 53.22 288 62.1 303.94 60.98" class="st1"/>
    <polygon points="319.75 42.77 303.6 35.11 287.62 39.55 303.78 46.18 319.75 42.77" class="st1"/>
    <polygon points="271.67 44.34 287.62 39.55 271.46 38.08 255.49 43.67 271.67 44.34" class="st1"/>
    <polygon points="223.35 52.8 239.3 46.39 223.08 51.38 207.13 57.66 223.35 52.8" class="st1"/>
    <polygon points="351.86 54.72 367.86 49.54 351.73 34.37 335.73 38.96 351.86 54.72" class="st1"/>
    <polygon points="383.78 24.33 367.63 19.12 351.6 22.73 367.75 29.38 383.78 24.33" class="st1"/>
    <polygon points="351.6 22.73 335.43 21.25 319.42 24.63 335.59 26.7 351.6 22.73" class="st1"/>
    <polygon points="512.5 40.78 496.4 25.91 480.31 38.5 496.41 59.63 512.5 40.78" class="st1"/>
    <polygon points="480.31 38.5 464.21 24.42 448.13 33.91 464.24 53.13 480.31 38.5" class="st1"/>
    <polygon points="415.95 28.54 432.02 21.87 415.88 15.57 399.82 19.61 415.95 28.54" class="st1"/>
    <polygon points="447.35 10.06 431.87 10.63 415.79 11.8 431.95 12.32 447.35 10.06" class="st1"/>
    <polygon points="415.79 11.8 399.62 13.31 383.55 14.5 399.72 13.59 415.79 11.8" class="st1"/>
    <polygon points="752.92 63.84 769.06 57.58 753.12 53.22 737 62.1 752.92 63.84" class="st1"/>
    <polygon points="705.25 42.77 689.26 38.96 673.14 54.72 689.13 57.92 705.25 42.77" class="st1"/>
    <polygon points="657.04 80.12 673.14 54.72 657.13 49.54 641.03 74.13 657.04 80.12" class="st1"/>
    <polygon points="641.22 24.33 625.18 19.61 609.05 28.54 625.09 35.81 641.22 24.33" class="st1"/>
    <polygon points="609.05 28.54 592.98 21.87 576.87 33.91 592.93 44.41 609.05 28.54" class="st1"/>
    <polygon points="544.69 38.5 560.79 24.42 544.71 16.54 528.6 25.91 544.69 38.5" class="st1"/>
    <polygon points="544.73 8.59 560.83 11.57 576.97 9.96 576.22 9.89 560.87 8.59 544.73 8.59" class="st1"/>
    <polygon points="528.62 7.46 514.03 8.03 512.5 8.09 528.61 10.88 544.73 8.59 528.62 7.46" class="st1"/>
    <polygon points="496.37 7.46 484.28 8.11 480.24 8.33 476.59 8.39 464.13 8.59 480.26 8.59 496.37 7.46" class="st1"/>
    <polygon points="833.8 64.15 817.87 57.66 801.65 52.8 817.59 59.63 833.8 64.15" class="st1"/>
    <polygon points="785.46 49.82 801.65 52.8 785.7 46.39 769.51 43.67 785.46 49.82" class="st1"/>
    <polygon points="737.37 39.55 753.54 38.08 737.57 33.05 721.4 35.11 737.37 39.55" class="st1"/>
    <polygon points="721.58 28.57 737.77 30.58 721.77 26.76 705.58 24.63 721.58 28.57" class="st1"/>
    <polygon points="673.4 22.73 689.56 21.25 673.54 18.43 657.37 19.12 673.4 22.73" class="st1"/>
    <polygon points="255.72 49.66 239.54 49.82 223.61 56.55 239.79 55.63 255.72 49.66" class="st1"/>
    <polygon points="319.59 30.89 303.42 28.57 287.43 33.05 303.6 35.11 319.59 30.89" class="st1"/>
    <polygon points="303.6 35.11 287.43 33.05 271.46 38.08 287.62 39.55 303.6 35.11" class="st1"/>
    <polygon points="271.46 38.08 287.43 33.05 271.24 35.18 255.26 40.49 271.46 38.08" class="st1"/>
    <polygon points="448.17 68.79 432.07 44.41 416.02 55.27 432.13 84.46 448.17 68.79" class="st1"/>
    <polygon points="416.02 55.27 399.91 35.81 383.88 43.02 399.99 65.52 416.02 55.27" class="st1"/>
    <polygon points="383.67 16.02 367.5 16.17 351.45 18.43 367.63 19.12 383.67 16.02" class="st1"/>
    <polygon points="351.6 22.73 367.63 19.12 351.45 18.43 335.43 21.25 351.6 22.73" class="st1"/>
    <polygon points="351.45 18.43 335.27 21.15 319.24 23.65 335.43 21.25 351.45 18.43" class="st1"/>
    <polygon points="560.73 103.28 576.82 68.79 560.75 53.13 544.67 80.96 560.73 103.28" class="st1"/>
    <polygon points="512.5 16.37 496.39 10.88 480.29 16.54 496.4 25.91 512.5 16.37" class="st1"/>
    <polygon points="496.4 25.91 480.29 16.54 464.21 24.42 480.31 38.5 496.4 25.91" class="st1"/>
    <polygon points="480.29 16.54 464.17 11.57 448.08 16.1 464.21 24.42 480.29 16.54" class="st1"/>
    <polygon points="753.12 53.22 769.28 49.66 753.33 44.34 737.18 49.54 753.12 53.22" class="st1"/>
    <polygon points="737 62.1 753.12 53.22 737.18 49.54 721.05 60.98 737 62.1" class="st1"/>
    <polygon points="721.05 60.98 737.18 49.54 721.22 46.18 705.1 59.79 721.05 60.98" class="st1"/>
    <polygon points="705.41 30.89 689.41 26.7 673.27 34.37 689.26 38.96 705.41 30.89" class="st1"/>
    <polygon points="673.14 54.72 689.26 38.96 673.27 34.37 657.13 49.54 673.14 54.72" class="st1"/>
    <polygon points="657.13 49.54 673.27 34.37 657.25 29.38 641.12 43.02 657.13 49.54" class="st1"/>
    <polygon points="641.33 16.02 625.27 13.59 609.12 15.57 625.18 19.61 641.33 16.02" class="st1"/>
    <polygon points="609.05 28.54 625.18 19.61 609.12 15.57 592.98 21.87 609.05 28.54" class="st1"/>
    <polygon points="609.12 15.57 593.05 12.32 576.91 16.1 592.98 21.87 609.12 15.57" class="st1"/>
    <polygon points="544.73 8.59 560.87 8.59 548.41 8.39 544.76 8.33 540.72 8.11 528.62 7.46 544.73 8.59" class="st1"/>
    <polygon points="834.09 63.45 818.14 57.5 801.91 51.38 817.87 57.66 834.09 63.45" class="st1"/>
    <polygon points="801.65 52.8 817.87 57.66 801.91 51.38 785.7 46.39 801.65 52.8" class="st1"/>
    <polygon points="785.7 46.39 801.91 51.38 785.95 45.47 769.74 40.49 785.7 46.39" class="st1"/>
    <polygon points="271.88 53.22 255.72 49.66 239.79 55.63 255.94 57.58 271.88 53.22" class="st1"/>
    <polygon points="272.08 63.84 288 62.1 271.88 53.22 255.94 57.58 272.08 63.84" class="st1"/>
    <polygon points="223.35 52.8 207.13 57.66 191.2 64.15 207.41 59.63 223.35 52.8" class="st1"/>
    <polygon points="271.88 53.22 287.82 49.54 271.67 44.34 255.72 49.66 271.88 53.22" class="st1"/>
    <polygon points="303.78 46.18 287.62 39.55 271.67 44.34 287.82 49.54 303.78 46.18" class="st1"/>
    <polygon points="319.9 59.79 303.78 46.18 287.82 49.54 303.94 60.98 319.9 59.79" class="st1"/>
    <polygon points="335.73 38.96 319.59 30.89 303.6 35.11 319.75 42.77 335.73 38.96" class="st1"/>
    <polygon points="351.86 54.72 335.73 38.96 319.75 42.77 335.87 57.92 351.86 54.72" class="st1"/>
    <polygon points="335.87 57.92 319.75 42.77 303.78 46.18 319.9 59.79 335.87 57.92" class="st1"/>
    <polygon points="271.67 44.34 255.49 43.67 239.54 49.82 255.72 49.66 271.67 44.34" class="st1"/>
    <polygon points="255.49 43.67 239.3 46.39 223.35 52.8 239.54 49.82 255.49 43.67" class="st1"/>
    <polygon points="271.46 38.08 255.26 40.49 239.3 46.39 255.49 43.67 271.46 38.08" class="st1"/>
    <polygon points="223.08 51.38 206.85 57.5 190.9 63.45 207.13 57.66 223.08 51.38" class="st1"/>
    <polygon points="271.24 35.18 255.03 40.12 239.05 45.47 255.26 40.49 271.24 35.18" class="st1"/>
    <polygon points="383.97 74.13 367.86 49.54 351.86 54.72 367.96 80.12 383.97 74.13" class="st1"/>
    <polygon points="399.99 65.52 383.88 43.02 367.86 49.54 383.97 74.13 399.99 65.52" class="st1"/>
    <polygon points="351.73 34.37 335.59 26.7 319.59 30.89 335.73 38.96 351.73 34.37" class="st1"/>
    <polygon points="351.73 34.37 367.75 29.38 351.6 22.73 335.59 26.7 351.73 34.37" class="st1"/>
    <polygon points="383.88 43.02 367.75 29.38 351.73 34.37 367.86 49.54 383.88 43.02" class="st1"/>
    <polygon points="399.82 19.61 383.67 16.02 367.63 19.12 383.78 24.33 399.82 19.61" class="st1"/>
    <polygon points="415.95 28.54 399.82 19.61 383.78 24.33 399.91 35.81 415.95 28.54" class="st1"/>
    <polygon points="399.91 35.81 383.78 24.33 367.75 29.38 383.88 43.02 399.91 35.81" class="st1"/>
    <polygon points="335.59 26.7 319.42 24.63 303.42 28.57 319.59 30.89 335.59 26.7" class="st1"/>
    <polygon points="319.42 24.63 303.23 26.76 287.23 30.58 303.42 28.57 319.42 24.63" class="st1"/>
    <polygon points="335.43 21.25 319.24 23.65 303.23 26.76 319.42 24.63 335.43 21.25" class="st1"/>
    <polygon points="480.33 80.96 464.24 53.13 448.17 68.79 464.26 103.28 480.33 80.96" class="st1"/>
    <polygon points="496.41 59.63 480.31 38.5 464.24 53.13 480.33 80.96 496.41 59.63" class="st1"/>
    <polygon points="528.6 25.91 512.5 16.37 496.4 25.91 512.5 40.78 528.6 25.91" class="st1"/>
    <polygon points="528.59 59.63 544.69 38.5 528.6 25.91 512.5 40.78 528.59 59.63" class="st1"/>
    <polygon points="528.59 59.63 512.5 40.78 496.41 59.63 512.5 85.73 528.59 59.63" class="st1"/>
    <polygon points="448.17 68.79 464.24 53.13 448.13 33.91 432.07 44.41 448.17 68.79" class="st1"/>
    <polygon points="448.13 33.91 432.02 21.87 415.95 28.54 432.07 44.41 448.13 33.91" class="st1"/>
    <polygon points="448.13 33.91 464.21 24.42 448.08 16.1 432.02 21.87 448.13 33.91" class="st1"/>
    <polygon points="415.88 15.57 399.72 13.59 383.67 16.02 399.82 19.61 415.88 15.57" class="st1"/>
    <polygon points="415.88 15.57 431.95 12.32 415.79 11.8 399.72 13.59 415.88 15.57" class="st1"/>
    <polygon points="448.08 16.1 431.95 12.32 415.88 15.57 432.02 21.87 448.08 16.1" class="st1"/>
    <polygon points="448.03 9.96 431.87 10.63 447.35 10.06 448.03 9.96" class="st1"/>
    <polygon points="464.17 11.57 480.26 8.59 464.13 8.59 448.78 9.89 448.03 9.96 464.17 11.57" class="st1"/>
    <polygon points="431.95 12.32 448.08 16.1 464.17 11.57 448.03 9.96 447.35 10.06 431.95 12.32" class="st1"/>
    <polygon points="399.72 13.59 383.55 14.5 367.5 16.17 383.67 16.02 399.72 13.59" class="st1"/>
    <polygon points="785.21 55.63 769.28 49.66 753.12 53.22 769.06 57.58 785.21 55.63" class="st1"/>
    <polygon points="705.25 42.77 721.4 35.11 705.41 30.89 689.26 38.96 705.25 42.77" class="st1"/>
    <polygon points="721.22 46.18 737.37 39.55 721.4 35.11 705.25 42.77 721.22 46.18" class="st1"/>
    <polygon points="705.1 59.79 721.22 46.18 705.25 42.77 689.13 57.92 705.1 59.79" class="st1"/>
    <polygon points="641.03 74.13 657.13 49.54 641.12 43.02 625.01 65.52 641.03 74.13" class="st1"/>
    <polygon points="608.98 55.27 592.93 44.41 576.82 68.79 592.87 84.46 608.98 55.27" class="st1"/>
    <polygon points="608.98 55.27 625.09 35.81 609.05 28.54 592.93 44.41 608.98 55.27" class="st1"/>
    <polygon points="641.12 43.02 625.09 35.81 608.98 55.27 625.01 65.52 641.12 43.02" class="st1"/>
    <polygon points="641.22 24.33 657.37 19.12 641.33 16.02 625.18 19.61 641.22 24.33" class="st1"/>
    <polygon points="657.25 29.38 673.4 22.73 657.37 19.12 641.22 24.33 657.25 29.38" class="st1"/>
    <polygon points="641.12 43.02 657.25 29.38 641.22 24.33 625.09 35.81 641.12 43.02" class="st1"/>
    <polygon points="576.82 68.79 592.93 44.41 576.87 33.91 560.75 53.13 576.82 68.79" class="st1"/>
    <polygon points="560.75 53.13 576.87 33.91 560.79 24.42 544.69 38.5 560.75 53.13" class="st1"/>
    <polygon points="576.87 33.91 592.98 21.87 576.91 16.1 560.79 24.42 576.87 33.91" class="st1"/>
    <polygon points="528.6 25.91 544.71 16.54 528.61 10.88 512.5 16.37 528.6 25.91" class="st1"/>
    <polygon points="528.61 10.88 544.71 16.54 560.83 11.57 544.73 8.59 528.61 10.88" class="st1"/>
    <polygon points="560.79 24.42 576.91 16.1 560.83 11.57 544.71 16.54 560.79 24.42" class="st1"/>
    <polygon points="609.21 11.8 593.13 10.63 576.97 9.96 593.05 12.32 609.21 11.8" class="st1"/>
    <polygon points="560.83 11.57 576.91 16.1 593.05 12.32 576.97 9.96 560.83 11.57" class="st1"/>
    <polygon points="528.61 10.88 512.5 8.09 496.39 10.88 512.5 16.37 528.61 10.88" class="st1"/>
    <polygon points="496.39 10.88 512.5 8.09 510.96 8.03 496.37 7.46 480.26 8.59 496.39 10.88" class="st1"/>
    <polygon points="785.21 55.63 801.39 56.55 785.46 49.82 769.28 49.66 785.21 55.63" class="st1"/>
    <polygon points="801.39 56.55 817.59 59.63 801.65 52.8 785.46 49.82 801.39 56.55" class="st1"/>
    <polygon points="785.46 49.82 769.51 43.67 753.33 44.34 769.28 49.66 785.46 49.82" class="st1"/>
    <polygon points="753.33 44.34 769.51 43.67 753.54 38.08 737.37 39.55 753.33 44.34" class="st1"/>
    <polygon points="785.7 46.39 769.74 40.49 753.54 38.08 769.51 43.67 785.7 46.39" class="st1"/>
    <polygon points="721.4 35.11 737.57 33.05 721.58 28.57 705.41 30.89 721.4 35.11" class="st1"/>
    <polygon points="737.57 33.05 753.76 35.18 737.77 30.58 721.58 28.57 737.57 33.05" class="st1"/>
    <polygon points="753.54 38.08 769.74 40.49 753.76 35.18 737.57 33.05 753.54 38.08" class="st1"/>
    <polygon points="785.95 45.47 769.97 40.12 753.76 35.18 769.74 40.49 785.95 45.47" class="st1"/>
    <polygon points="705.41 30.89 721.58 28.57 705.58 24.63 689.41 26.7 705.41 30.89" class="st1"/>
    <polygon points="705.58 24.63 721.77 26.76 705.76 23.65 689.56 21.25 705.58 24.63" class="st1"/>
    <polygon points="657.37 19.12 673.54 18.43 657.5 16.17 641.33 16.02 657.37 19.12" class="st1"/>
    <polygon points="705.76 23.65 689.73 21.15 673.54 18.43 689.56 21.25 705.76 23.65" class="st1"/>
    <polygon points="641.33 16.02 657.5 16.17 641.45 14.5 625.27 13.59 641.33 16.02" class="st1"/>
    <polygon points="641.45 14.5 625.38 13.31 609.21 11.8 625.27 13.59 641.45 14.5" class="st1"/>
    <polygon points="705.58 24.63 689.56 21.25 673.4 22.73 689.41 26.7 705.58 24.63" class="st1"/>
    <polygon points="255.26 40.49 239.05 45.47 223.08 51.38 239.3 46.39 255.26 40.49" class="st1"/>
</svg>