<svg width="994" height="150" viewBox="0 0 994 150" fill="none" xmlns="http://www.w3.org/2000/svg">
<path d="M91.1707 47.9998C91.5968 43.3123 90.4605 39.6428 87.7616 36.9913C85.0627 34.2924 80.5173 32.943 74.1252 32.943C70.0533 32.943 66.6442 33.4165 63.898 34.3635C61.1991 35.3104 59.0921 36.6125 57.5769 38.2697C56.1091 39.9269 55.1858 41.8445 54.8071 44.0226C54.3809 45.7271 54.4046 47.2896 54.8781 48.7101C55.3989 50.0832 56.3696 51.3379 57.79 52.4743C59.2578 53.6106 61.1754 54.6286 63.5429 55.5282C65.9576 56.4279 68.8222 57.2328 72.1366 57.943L83.5002 60.4998C91.2654 62.2044 97.7758 64.4534 103.031 67.247C108.335 69.9932 112.501 73.2602 115.531 77.0481C118.562 80.836 120.55 85.0737 121.497 89.7612C122.492 94.4487 122.515 99.5623 121.568 105.102C119.959 114.666 116.242 122.763 110.418 129.392C104.594 136.021 96.9946 141.063 87.6196 144.52C78.2446 147.976 67.4018 149.704 55.0911 149.704C42.4965 149.704 31.7957 147.834 22.9889 144.094C14.2294 140.306 7.88471 134.529 3.95478 126.764C0.0722044 118.952 -0.874765 108.985 1.11387 96.8635H38.6139C38.0457 101.314 38.5192 105.055 40.0343 108.085C41.5495 111.115 43.9879 113.412 47.3497 114.974C50.7114 116.537 54.9018 117.318 59.9207 117.318C64.1821 117.318 67.8279 116.797 70.8582 115.756C73.8885 114.714 76.2796 113.27 78.0315 111.423C79.7834 109.577 80.8487 107.47 81.2275 105.102C81.6063 102.924 81.2275 100.983 80.0911 99.2782C78.9548 97.5737 76.8951 96.0349 73.9122 94.6618C70.9292 93.2887 66.8336 92.0339 61.6252 90.8976L47.7048 87.7726C35.3468 84.9316 26.0192 80.2441 19.7218 73.7101C13.4245 67.176 11.1991 58.2271 13.0457 46.8635C14.5608 37.5832 18.3724 29.4866 24.4804 22.5737C30.6357 15.6135 38.4482 10.2157 47.9178 6.3805C57.4349 2.49793 67.9699 0.556641 79.523 0.556641C91.2654 0.556641 101.09 2.5216 108.997 6.45153C116.952 10.3815 122.657 15.8976 126.114 22.9998C129.618 30.1021 130.565 38.4354 128.955 47.9998H91.1707Z" fill="black"/>
<path d="M182.328 149.988C170.491 149.988 160.737 147.645 153.067 142.957C145.444 138.222 140.094 131.641 137.016 123.213C133.938 114.738 133.323 104.913 135.169 93.7385C137.016 82.5642 140.875 72.7631 146.746 64.3351C152.617 55.8597 160.169 49.2782 169.402 44.5907C178.635 39.8559 189.194 37.4885 201.078 37.4885C212.868 37.4885 222.575 39.8559 230.198 44.5907C237.868 49.2782 243.242 55.8597 246.32 64.3351C249.445 72.7631 250.084 82.5642 248.237 93.7385C246.391 104.913 242.508 114.738 236.59 123.213C230.671 131.641 223.095 138.222 213.862 142.957C204.677 147.645 194.165 149.988 182.328 149.988ZM187.158 121.011C190.567 121.011 193.668 119.898 196.462 117.673C199.303 115.448 201.718 112.275 203.706 108.156C205.742 104.037 207.234 99.1362 208.181 93.4544C209.128 87.7252 209.27 82.8246 208.607 78.7527C207.944 74.6333 206.571 71.461 204.487 69.2356C202.404 67.0102 199.658 65.8976 196.249 65.8976C192.84 65.8976 189.715 67.0102 186.874 69.2356C184.033 71.461 181.618 74.6333 179.63 78.7527C177.641 82.8246 176.173 87.7252 175.226 93.4544C174.279 99.1362 174.113 104.037 174.729 108.156C175.392 112.275 176.765 115.448 178.848 117.673C180.979 119.898 183.749 121.011 187.158 121.011Z" fill="black"/>
<path d="M255.056 148L273.237 38.9089H311.306L307.897 59.6476H309.033C312.3 51.9771 316.396 46.3663 321.32 42.8152C326.244 39.264 331.618 37.4885 337.442 37.4885C339.147 37.4885 340.78 37.6305 342.343 37.9146C343.952 38.1513 345.539 38.4828 347.101 38.9089L341.419 72.4316C339.573 71.7214 337.276 71.2243 334.53 70.9402C331.784 70.6087 329.345 70.443 327.215 70.443C323.427 70.443 319.876 71.319 316.561 73.0708C313.294 74.7754 310.501 77.1902 308.181 80.3152C305.908 83.3928 304.393 87.015 303.635 91.1816L294.26 148H255.056Z" fill="black"/>
<path d="M429.505 38.9089L424.676 67.318H352.801L357.63 38.9089H429.505ZM375.812 12.7726H415.017L398.397 112.915C398.161 114.43 398.208 115.708 398.539 116.75C398.871 117.744 399.534 118.502 400.528 119.023C401.57 119.496 402.943 119.733 404.647 119.733C405.784 119.733 407.18 119.591 408.838 119.307C410.495 118.975 411.75 118.738 412.602 118.596L413.738 146.153C411.75 146.721 409.074 147.361 405.713 148.071C402.398 148.828 398.539 149.326 394.136 149.562C384.95 149.988 377.469 149.018 371.693 146.65C365.964 144.283 361.986 140.59 359.761 135.571C357.583 130.505 357.204 124.184 358.625 116.608L375.812 12.7726Z" fill="black"/>
<path d="M466.597 148L490.745 2.54528H530.233L511.483 116.182H570.29L564.892 148H466.597Z" fill="black"/>
<path d="M611.536 149.704C604.624 149.704 598.681 148.568 593.71 146.295C588.786 143.975 585.187 140.471 582.914 135.784C580.689 131.049 580.192 125.083 581.423 117.886C582.417 111.92 584.287 106.83 587.034 102.616C589.78 98.4023 593.189 94.9458 597.261 92.247C601.333 89.5481 605.902 87.4885 610.968 86.068C616.082 84.6002 621.48 83.6532 627.161 83.2271C633.317 82.7536 638.312 82.1618 642.147 81.4515C645.983 80.7413 648.847 79.7707 650.741 78.5396C652.635 77.3085 653.771 75.6513 654.15 73.568V73.2839C654.576 70.443 653.819 68.265 651.877 66.7498C649.983 65.2347 647.332 64.4771 643.923 64.4771C640.23 64.4771 637.034 65.282 634.335 66.8919C631.683 68.5017 629.86 71.0112 628.866 74.4203H592.786C594.302 67.7915 597.403 61.6835 602.09 56.0964C606.825 50.4619 613.099 45.9638 620.911 42.6021C628.771 39.193 638.146 37.4885 649.036 37.4885C656.802 37.4885 663.62 38.4118 669.491 40.2584C675.362 42.0576 680.215 44.5907 684.051 47.8578C687.933 51.0775 690.656 54.8654 692.218 59.2214C693.828 63.5301 694.207 68.2176 693.355 73.2839L680.855 148H644.207L646.764 132.659H645.911C643.071 136.731 639.875 140.022 636.323 142.531C632.82 145.041 628.984 146.863 624.818 148C620.698 149.136 616.271 149.704 611.536 149.704ZM628.582 124.988C631.518 124.988 634.406 124.373 637.247 123.142C640.088 121.911 642.526 120.135 644.562 117.815C646.598 115.495 647.9 112.678 648.468 109.363L649.889 100.273C648.847 100.699 647.687 101.101 646.409 101.48C645.178 101.811 643.875 102.143 642.502 102.474C641.177 102.806 639.756 103.113 638.241 103.398C636.773 103.682 635.258 103.966 633.696 104.25C630.571 104.723 627.943 105.505 625.812 106.594C623.681 107.635 622.024 108.937 620.84 110.5C619.657 112.015 618.923 113.72 618.639 115.613C618.213 118.596 618.899 120.916 620.698 122.574C622.545 124.184 625.173 124.988 628.582 124.988Z" fill="black"/>
<path d="M782.826 38.9089L777.996 67.318H706.121L710.951 38.9089H782.826ZM729.132 12.7726H768.337L751.718 112.915C751.481 114.43 751.528 115.708 751.86 116.75C752.191 117.744 752.854 118.502 753.848 119.023C754.89 119.496 756.263 119.733 757.968 119.733C759.104 119.733 760.501 119.591 762.158 119.307C763.815 118.975 765.07 118.738 765.922 118.596L767.058 146.153C765.07 146.721 762.395 147.361 759.033 148.071C755.719 148.828 751.86 149.326 747.456 149.562C738.271 149.988 730.79 149.018 725.013 146.65C719.284 144.283 715.307 140.59 713.081 135.571C710.903 130.505 710.524 124.184 711.945 116.608L729.132 12.7726Z" fill="black"/>
<path d="M831.458 149.988C819.811 149.988 810.152 147.763 802.481 143.312C794.811 138.814 789.413 132.375 786.288 123.994C783.163 115.566 782.595 105.481 784.583 93.7385C786.477 82.4695 790.384 72.621 796.302 64.193C802.268 55.765 809.773 49.2072 818.816 44.5197C827.907 39.8322 838.087 37.4885 849.356 37.4885C857.595 37.4885 864.815 38.7669 871.018 41.3237C877.268 43.8805 882.358 47.5974 886.288 52.4743C890.218 57.3512 892.869 63.246 894.242 70.1589C895.663 77.0244 895.663 84.7896 894.242 93.4544L892.822 102.545H795.379L798.788 80.9544H860.151C860.625 77.8294 860.317 75.0832 859.228 72.7157C858.187 70.301 856.506 68.4307 854.186 67.1049C851.913 65.7318 849.167 65.0453 845.947 65.0453C842.727 65.0453 839.697 65.7318 836.856 67.1049C834.063 68.478 831.671 70.3957 829.683 72.8578C827.741 75.3199 826.439 78.2082 825.776 81.5226L821.515 104.25C820.947 107.754 821.16 110.879 822.154 113.625C823.149 116.371 824.877 118.525 827.339 120.088C829.801 121.65 832.974 122.432 836.856 122.432C839.508 122.432 842.017 122.077 844.384 121.366C846.799 120.609 848.93 119.52 850.776 118.099C852.67 116.631 854.186 114.856 855.322 112.773H891.117C888.561 120.348 884.512 126.93 878.973 132.517C873.48 138.057 866.709 142.365 858.66 145.443C850.658 148.473 841.591 149.988 831.458 149.988Z" fill="black"/>
<path d="M901.149 148L919.331 38.9089H957.399L953.99 59.6476H955.127C958.394 51.9771 962.489 46.3663 967.414 42.8152C972.338 39.264 977.712 37.4885 983.536 37.4885C985.24 37.4885 986.874 37.6305 988.436 37.9146C990.046 38.1513 991.632 38.4828 993.195 38.9089L987.513 72.4316C985.666 71.7214 983.37 71.2243 980.624 70.9402C977.878 70.6087 975.439 70.443 973.308 70.443C969.521 70.443 965.969 71.319 962.655 73.0708C959.388 74.7754 956.594 77.1902 954.274 80.3152C952.002 83.3928 950.487 87.015 949.729 91.1816L940.354 148H901.149Z" fill="black"/>
</svg>
