<?xml version="1.0" encoding="UTF-8"?><svg id="Layer_2" xmlns="http://www.w3.org/2000/svg" viewBox="0 0 355.47 345.39"><defs><style>.cls-1{fill:#fff;}</style></defs><g id="Layer_1-2"><path class="cls-1" d="M316.2,136.7c6.34,0,12.33-.08,18.33,.02,12.45,.2,20.63,8.25,20.8,20.75,.18,12.99,.19,26,0,38.99-.19,12.54-8.27,20.32-20.92,20.53-5.33,.09-10.67,.15-15.99-.03-3.02-.1-4.17,.8-4.85,4.01-12.48,58.74-47.77,95.83-105.94,111.02-1.45,.38-2.92,.73-4.4,.86-4.77,.45-8.32,2.2-11.66,6.19-7.01,8.36-19.8,8.31-27.68,.77-8.01-7.67-8.14-20.42-.28-28.22,7.79-7.74,20-7.78,27.73,.25,2.02,2.1,3.7,2.5,6.47,2.03,54.58-9.29,96.1-55.95,97.96-111.22,.81-23.96,.78-48-.08-71.97-2.03-56.24-49.11-105.15-105.25-110.21C127.19,14.75,73.61,54.64,61.38,116.81c-1.44,7.3-1.83,14.88-1.9,22.35-.23,23.83-.09,47.65-.09,71.48,0,1.81,0,3.62,0,5.78-1.59,.23-2.84,.56-4.09,.56-11.5,.04-23,.13-34.49-.01-12.59-.16-20.56-8.12-20.71-20.72-.15-12.83-.13-25.66,0-38.49,.13-12.78,8.28-20.88,21.01-21.05,5.97-.08,11.95-.01,18.28-.01,1.84-44.35,19.25-80.78,54.2-108.03C119.04,8.82,148.31-.67,180.56,.04c77.32,1.68,135.51,65.24,135.64,136.66Zm-229.5,40.86c0-50.35,40.68-91,91.08-90.99,50.32,0,91.04,40.8,90.95,91.12-.08,50.35-40.8,90.92-91.21,90.88-50.2-.05-90.82-40.76-90.83-91.01Zm132.11-4.48c-.29-12.68-2.15-24.84-5.61-36.57-10.52,.77-20.77,1.53-30.96,2.28v34.29h36.56Zm-45.56,43.28v-34.19h-36.62c.27,12.62,2.15,24.78,5.6,36.45,10.51-.77,20.71-1.51,31.02-2.27Zm-31.05-79.66c-3.41,11.89-5.35,23.97-5.55,36.43h36.58v-34.15c-10.37-.76-20.56-1.51-31.03-2.28Zm71.04,81.63c3.4-11.88,5.36-23.95,5.54-36.35h-36.59v34.1c10.34,.75,20.53,1.49,31.05,2.25Zm46.58-45.2c0-1.38,.12-2.65-.02-3.9-1.42-13.17-5.68-25.35-12.9-36.48-2.18-3.36-2.16-3.25-5.93-2.24-6.22,1.67-12.48,3.2-18.91,4.83,3.39,12.29,5.14,24.9,5.49,37.78h32.27Zm-126.47-37.74c-6.99-1.82-13.65-3.47-20.25-5.33-1.67-.47-2.52-.25-3.49,1.2-6.05,9-10.3,18.76-12.49,29.37-.84,4.09-1.24,8.27-1.85,12.53h32.62c.34-12.9,2.12-25.52,5.46-37.77Zm-37.79,46.56c0,.66-.04,1.2,0,1.74,1.21,14.83,6.02,28.38,14.44,40.67,.76,1.11,1.49,1.06,2.6,.77,5.87-1.54,11.76-3.02,17.64-4.5,1.04-.26,2.09-.48,3.13-.73-.26-.06-.52-.13-.78-.19-1.82-12.54-3.63-25.07-5.47-37.75h-31.56Zm164.4,.12h-31.51c-1.87,12.85-3.7,25.46-5.5,37.87,6.6,1.73,13.54,3.59,20.51,5.32,.57,.14,1.67-.41,1.99-.95,2.76-4.77,5.71-9.47,7.99-14.47,3.98-8.73,6.01-18,6.53-27.77Zm-86.73,77.63v-34.54c-9.4,.61-18.61,1.21-27.88,1.81,1.03,4.76,6.13,14.4,10.48,19.99,3.17,4.07,6.77,7.7,11.36,10.16,1.86,1,3.89,1.68,6.04,2.58Zm36.96-131.48c-.24-.9-.28-1.47-.53-1.93-3.26-5.94-6.27-12.03-9.91-17.72-2.99-4.68-7.19-8.37-12.23-10.89-1.65-.83-3.44-1.38-5.34-2.12v34.47c9.38-.6,18.59-1.19,28.01-1.8Zm-28.02,130.98c9.71-.64,25.84-19.15,27.83-32.21-9.25-.61-18.47-1.21-27.83-1.82v34.03Zm-36.8-131.01c9.4,.61,18.61,1.21,27.91,1.81v-34.05c-9.94,.99-24.89,18.1-27.91,32.24Zm74.03,100.07c-3.53,10.2-8.59,19-15.04,27.06,13.3-4.42,24.6-11.79,34.46-22.49-6.78-1.6-12.99-3.06-19.42-4.57Zm-102.49,4.43c6.21,8.62,26.67,21.88,34.37,22.42-6.74-7.97-11.71-16.85-15.25-26.91-6.37,1.5-12.58,2.96-19.12,4.5Zm19.14-105.81c3.51-10.14,8.54-18.96,15.62-27.42-13.88,4.78-25.17,12.18-35.05,22.84,6.75,1.59,12.95,3.05,19.43,4.58Zm102.9-4.38c-10.1-10.8-21.31-18.25-35.11-22.98,6.88,8.16,11.8,16.7,15.25,26.1,.17,.46,1.09,1.02,1.54,.93,5.92-1.24,11.82-2.59,18.32-4.05Z"/></g></svg>